<?xml version="1.0" encoding="UTF-8" standalone="no"?>
<svg
   xmlns:dc="http://purl.org/dc/elements/1.1/"
   xmlns:cc="http://creativecommons.org/ns#"
   xmlns:rdf="http://www.w3.org/1999/02/22-rdf-syntax-ns#"
   xmlns:svg="http://www.w3.org/2000/svg"
   xmlns="http://www.w3.org/2000/svg"
   viewBox="0 0 1122.5197 793.70081"
   height="793.70081"
   width="1122.5197"
   xml:space="preserve"
   id="svg2"
   version="1.1"><metadata
     id="metadata8"><rdf:RDF><cc:Work
         rdf:about=""><dc:format>image/svg+xml</dc:format><dc:type
           rdf:resource="http://purl.org/dc/dcmitype/StillImage" /></cc:Work></rdf:RDF></metadata><defs
     id="defs6"><clipPath
       id="clipPath18"
       clipPathUnits="userSpaceOnUse"><path
         style="clip-rule:evenodd"
         id="path16"
         d="m 421.1651,521.6051 c 106.5708,0 195.7499,-74.4372 218.399,-174.1532 h -10.6818 c -22.4416,93.924 -106.9163,163.7577 -207.7172,163.7577 -46.4479,0 -89.4279,-14.8328 -124.4718,-40.0118 -4.2559,2.4168 -9.2801,3.2828 -14.1199,2.3828 38.1234,30.0758 86.2622,48.0245 138.5917,48.0245 z m 117.7566,-366.7116 -9.2803,10.7411 7.9509,6.8695 1.5681,-1.8153 -5.7756,-4.9899 2.0611,-2.3853 5.3705,4.64 1.5681,-1.815 -5.3705,-4.64 2.5143,-2.9104 5.9857,5.1713 1.5684,-1.8151 z m -20.0268,2.306 4.1091,3.231 c 0.9272,0.729 1.6886,1.2146 2.287,1.4536 0.8031,0.3206 1.6336,0.4186 2.4866,0.2911 0.8535,-0.1236 1.6806,-0.4485 2.4862,-0.9706 0.8014,-0.5216 1.6158,-1.3062 2.437,-2.3505 0.7228,-0.9193 1.2297,-1.7989 1.5239,-2.6436 0.3611,-1.0312 0.4805,-2.0007 0.358,-2.9086 -0.0893,-0.6883 -0.3841,-1.3989 -0.8787,-2.1328 -0.3717,-0.5485 -0.9726,-1.1472 -1.8037,-1.8008 l -4.231,-3.3271 z m 3.7426,-0.1088 5.8085,-7.3868 1.6753,1.3172 c 0.6258,0.4924 1.0493,0.8842 1.2721,1.1727 0.2946,0.379 0.4737,0.7716 0.5409,1.1778 0.07,0.4079 -0.017,0.9196 -0.2585,1.5367 -0.239,0.6194 -0.7007,1.3617 -1.3791,2.224 -0.6777,0.8621 -1.2719,1.4627 -1.7889,1.8046 -0.5142,0.3438 -1.0092,0.5349 -1.4859,0.58 -0.4748,0.0428 -0.9593,-0.0522 -1.4514,-0.292 -0.3671,-0.1749 -1.0111,-0.6228 -1.9256,-1.3417 z m -12.2887,-13.7214 c -0.7801,1.2192 -1.2515,2.3607 -1.4177,3.4237 -0.1201,0.7821 -0.098,1.569 0.0624,2.3541 0.1607,0.7852 0.4459,1.4738 0.8538,2.0685 0.5448,0.7917 1.3031,1.5007 2.2774,2.124 1.7642,1.129 3.5237,1.4817 5.284,1.0664 1.7592,-0.4198 3.2621,-1.6041 4.5105,-3.5549 1.2376,-1.9344 1.6804,-3.7851 1.3292,-5.5477 -0.3493,-1.7652 -1.406,-3.2097 -3.1621,-4.3334 -1.7784,-1.1381 -3.5424,-1.5017 -5.288,-1.0848 -1.7439,0.4142 -3.2281,1.5747 -4.4495,3.4841 z m 2.4366,1.6727 c 0.8671,-1.3555 1.8389,-2.1812 2.9137,-2.4817 1.0732,-0.2979 2.0937,-0.1395 3.0569,0.4768 0.9658,0.6179 1.5336,1.4714 1.7105,2.5616 0.1729,1.0914 -0.1843,2.3298 -1.073,3.7188 -0.8778,1.372 -1.8337,2.2039 -2.8686,2.4911 -1.0341,0.2917 -2.0483,0.1171 -3.0473,-0.5221 -0.9963,-0.6376 -1.5817,-1.4945 -1.7552,-2.5662 -0.1712,-1.0747 0.1814,-2.3006 1.063,-3.6783 z m -8.3032,-6.77 -1.0882,2.1379 5.4949,2.797 2.5691,-5.0477 c -0.2679,-0.7923 -0.8099,-1.6429 -1.6237,-2.5574 -0.8122,-0.9102 -1.7394,-1.6308 -2.7817,-2.1611 -1.3223,-0.673 -2.6146,-0.9822 -3.8815,-0.9264 -1.2636,0.0575 -2.4088,0.4793 -3.4296,1.2611 -1.021,0.7815 -1.8422,1.7836 -2.4613,2.9999 -0.6715,1.319 -0.991,2.632 -0.9635,3.9402 0.032,1.3065 0.4371,2.5064 1.2214,3.5949 0.5984,0.8348 1.499,1.5568 2.7063,2.1713 1.5695,0.7988 2.9653,1.0936 4.1845,0.8839 1.2177,-0.2146 2.2493,-0.8351 3.096,-1.8723 l -2.3012,-1.7719 c -0.4932,0.5315 -1.0791,0.852 -1.7552,0.964 -0.6718,0.1106 -1.3756,-0.0215 -2.1118,-0.3963 -1.1132,-0.5666 -1.8196,-1.3711 -2.1152,-2.4151 -0.2954,-1.0437 -0.0902,-2.2629 0.6188,-3.6558 0.7659,-1.5047 1.6727,-2.4633 2.7204,-2.8752 1.0508,-0.4107 2.1141,-0.3441 3.1949,0.2061 0.5329,0.2712 1.0148,0.65 1.4446,1.1318 0.4325,0.4834 0.7613,0.9732 0.9941,1.4701 l -0.8167,1.605 z m -8.6366,-9.932 -5.8487,12.9336 2.6192,1.1846 5.8487,-12.9339 z m -18.3629,7.8849 5.2844,2.0732 c 1.0488,0.4116 1.8439,0.6741 2.3913,0.7895 0.5516,0.1136 1.0814,0.1119 1.5948,-0.003 0.5145,-0.1176 0.9966,-0.3509 1.4471,-0.7027 0.4504,-0.3523 0.7886,-0.8161 1.0119,-1.385 0.2412,-0.6151 0.2985,-1.2495 0.1678,-1.8933 -0.1292,-0.6474 -0.4308,-1.2092 -0.8983,-1.6908 0.8955,0.0782 1.6679,-0.0803 2.3236,-0.4763 0.6525,-0.3968 1.1285,-0.9768 1.4292,-1.7427 0.2364,-0.6026 0.3271,-1.2416 0.2707,-1.9205 -0.0567,-0.6789 -0.2593,-1.2835 -0.6114,-1.8158 -0.3501,-0.5279 -0.8649,-0.9712 -1.544,-1.3298 -0.4249,-0.2199 -1.4862,-0.6718 -3.1825,-1.3515 l -4.5,-1.7657 -5.1846,13.214 z m 3.5377,-1.1461 1.1948,-3.0453 1.7473,0.6857 c 1.0363,0.4065 1.6764,0.6755 1.9165,0.8051 0.4348,0.231 0.733,0.5289 0.8917,0.8929 0.1591,0.3642 0.1542,0.7563 -0.0121,1.1806 -0.1608,0.4093 -0.4037,0.6937 -0.7286,0.8609 -0.3245,0.1673 -0.7202,0.1896 -1.1837,0.068 -0.2764,-0.0731 -1.0423,-0.3557 -2.2941,-0.847 z m 2.0565,-5.2415 1.3901,-3.5433 2.4733,0.9703 c 0.9595,0.3764 1.5607,0.6446 1.7985,0.7979 0.368,0.2293 0.6222,0.5318 0.7614,0.9094 0.1381,0.3807 0.1182,0.8022 -0.0663,1.273 -0.157,0.3997 -0.3838,0.6976 -0.6863,0.8983 -0.2993,0.2021 -0.6587,0.2954 -1.0715,0.2789 -0.4121,-0.0161 -1.2282,-0.2616 -2.4432,-0.7384 z m -23.7617,-13.2826 -3.1921,13.8313 10.2382,2.3627 0.5394,-2.3371 -7.4372,-1.7164 0.7089,-3.0716 6.9157,1.5959 0.5394,-2.3372 -6.9157,-1.5962 0.8649,-3.7474 7.7077,1.7787 0.5394,-2.3374 z m -27.3002,3.4154 c -0.1097,1.4432 0.0156,2.672 0.3725,3.6868 0.2645,0.7458 0.6565,1.4284 1.1699,2.044 0.513,0.6157 1.0904,1.0871 1.7314,1.4177 0.8546,0.4393 1.8581,0.7049 3.0112,0.7925 2.0889,0.159 3.8055,-0.3634 5.1593,-1.5624 1.3507,-1.2028 2.1138,-2.9577 2.2896,-5.2671 0.1743,-2.2898 -0.3118,-4.1295 -1.4559,-5.5156 -1.1432,-1.3893 -2.7581,-2.1615 -4.837,-2.3196 -2.105,-0.1605 -3.8313,0.3543 -5.1713,1.5482 -1.3399,1.1903 -2.0976,2.9155 -2.2697,5.1755 z m 2.9384,0.3198 c 0.1219,-1.6047 0.5868,-2.7921 1.3913,-3.5657 0.8044,-0.7708 1.7784,-1.114 2.9182,-1.0273 1.1432,0.087 2.0475,0.5701 2.7196,1.4465 0.669,0.8793 0.9408,2.1391 0.8158,3.7832 -0.1236,1.6245 -0.5717,2.8097 -1.3473,3.5526 -0.7727,0.7467 -1.7487,1.0732 -2.9313,0.9831 -1.1795,-0.0899 -2.1008,-0.5675 -2.761,-1.4295 -0.6596,-0.8655 -0.9294,-2.1121 -0.8053,-3.7429 z m -13.8331,-7.71 -0.3784,14.0709 2.8735,0.0771 0.3141,-11.6728 7.1149,0.1914 0.0644,-2.3978 z m -13.2976,0.3589 0.3799,14.1897 10.5035,-0.2812 -0.0641,-2.3979 -7.63,0.2044 -0.0842,-3.1512 7.0948,-0.19 -0.0643,-2.3978 -7.0948,0.1899 -0.1029,-3.8446 7.9072,-0.2118 -0.0641,-2.3981 z m -12.4557,15.783 5.6325,-0.7069 c 1.1179,-0.1403 1.9414,-0.2903 2.4777,-0.4505 0.5386,-0.1644 1.0029,-0.4192 1.3992,-0.765 0.3954,-0.3498 0.7075,-0.7852 0.9343,-1.3096 0.2273,-0.5247 0.3025,-1.0939 0.2265,-1.7003 -0.0825,-0.6556 -0.3353,-1.2401 -0.7583,-1.743 -0.4232,-0.5065 -0.9567,-0.8558 -1.5976,-1.055 0.8238,-0.3598 1.4261,-0.8683 1.8125,-1.5296 0.3835,-0.6608 0.5241,-1.3978 0.4215,-2.2142 -0.0805,-0.6423 -0.3064,-1.2469 -0.6806,-1.8161 -0.3747,-0.5689 -0.8419,-1.0032 -1.4057,-1.302 -0.5598,-0.2959 -1.2243,-0.439 -1.9919,-0.4294 -0.4785,0.0102 -1.6268,0.121 -3.4415,0.3353 l -4.7963,0.6021 z m 2.5586,-2.6986 -0.4074,-3.2456 1.8621,-0.2339 c 1.105,-0.1386 1.7955,-0.2086 2.0685,-0.2097 0.4921,-0.005 0.8968,0.1139 1.2101,0.3577 0.3138,0.2438 0.4974,0.5904 0.5541,1.0426 0.0547,0.4362 -0.0226,0.8022 -0.2279,1.1043 -0.2049,0.3022 -0.542,0.5111 -1.0071,0.6259 -0.2778,0.0681 -1.0854,0.1863 -2.4197,0.3538 z m -0.701,-5.5865 -0.4743,-3.7769 2.636,-0.3308 c 1.0227,-0.1284 1.6789,-0.1805 1.9613,-0.1596 0.4328,0.0256 0.8005,0.1693 1.1035,0.4343 0.3033,0.2682 0.4875,0.648 0.5505,1.1497 0.0535,0.4261 -0.003,0.7963 -0.1729,1.1175 -0.1659,0.3203 -0.4371,0.574 -0.8073,0.7571 -0.37,0.1831 -1.2039,0.3577 -2.4988,0.5202 z m -5.1364,-5.5601 -3.047,0.549 -0.6335,3.3976 -5.6027,1.0097 -1.7339,-2.9712 -2.9917,0.5391 7.9412,12.9923 2.9886,-0.5383 z m -4.172,6.4729 -1.0097,5.5202 -2.8174,-4.8306 z m -12.0402,2.247 2.4386,-1.5758 c -0.8359,-1.3878 -1.8351,-2.3102 -2.9959,-2.7717 -1.1599,-0.4584 -2.4712,-0.4819 -3.937,-0.0672 -1.8156,0.5137 -3.1312,1.5557 -3.9504,3.1266 -0.8158,1.5702 -0.9213,3.4305 -0.3124,5.5826 0.6435,2.2737 1.732,3.8747 3.2613,4.8019 1.5293,0.9269 3.2527,1.1194 5.1667,0.5777 1.6724,-0.4734 2.8896,-1.3536 3.6524,-2.6374 0.4578,-0.7614 0.6846,-1.7319 0.6855,-2.9171 l -2.9112,0.1233 c 0.0374,0.7517 -0.1412,1.4068 -0.5369,1.9616 -0.3991,0.5559 -0.9646,0.9357 -1.696,1.1426 -1.0139,0.2872 -1.94,0.1576 -2.7757,-0.3923 -0.8379,-0.5459 -1.4856,-1.6333 -1.9459,-3.261 -0.4879,-1.7234 -0.5245,-3.0418 -0.1114,-3.9486 0.4155,-0.9105 1.1196,-1.5049 2.1146,-1.7864 0.7345,-0.2078 1.4329,-0.1548 2.0931,0.1633 0.6599,0.318 1.2481,0.9413 1.7606,1.8779 z m -21.3951,1.1336 -2.8224,1.2725 0.2109,3.45 -5.1897,2.3403 -2.4038,-2.4611 -2.7711,1.2498 10.8595,10.6742 2.768,-1.2484 z m -2.4746,7.2924 0.3614,5.6001 -3.9067,-4.0014 z m -15.5248,17.0254 5.0559,-2.5806 c 1.0037,-0.5122 1.7271,-0.9335 2.1767,-1.2665 0.451,-0.3379 0.8008,-0.7354 1.0556,-1.1954 0.2532,-0.4635 0.3983,-0.9788 0.4334,-1.5494 0.0352,-0.5706 -0.0878,-1.1313 -0.3656,-1.6759 -0.3005,-0.5884 -0.7373,-1.0519 -1.3059,-1.381 -0.5704,-0.3322 -1.1909,-0.4794 -1.8613,-0.4487 0.6526,-0.6186 1.046,-1.3017 1.1843,-2.0552 0.1358,-0.7514 0.0173,-1.4924 -0.3568,-2.2254 -0.2943,-0.5766 -0.7124,-1.0681 -1.2581,-1.476 -0.5456,-0.4077 -1.1327,-0.6571 -1.7645,-0.7464 -0.6273,-0.0879 -1.3006,0.003 -2.0191,0.2738 -0.4465,0.1721 -1.4888,0.6673 -3.1221,1.4859 l -4.3056,2.1978 z m 1.4879,-3.4081 -1.487,-2.9134 1.6716,-0.8532 c 0.9918,-0.5063 1.6174,-0.8071 1.8737,-0.9012 0.4612,-0.172 0.8821,-0.1978 1.2597,-0.0751 0.3778,0.1225 0.6684,0.3861 0.8756,0.792 0.1998,0.3918 0.2514,0.7622 0.1613,1.116 -0.0899,0.3538 -0.3356,0.665 -0.7342,0.9312 -0.2378,0.1585 -0.9572,0.5442 -2.1549,1.1557 z m -2.5597,-5.015 -1.7302,-3.3902 2.366,-1.2076 c 0.9182,-0.4686 1.5174,-0.7413 1.7901,-0.8172 0.4156,-0.1233 0.8104,-0.1134 1.1855,0.0328 0.3764,0.1491 0.6789,0.4434 0.9088,0.8938 0.1953,0.3827 0.2678,0.7501 0.2174,1.1098 -0.0471,0.3577 -0.2157,0.6885 -0.5018,0.9867 -0.2854,0.2979 -1.0102,0.7458 -2.1727,1.3391 z m -17.49,3.431 7.6756,11.9407 5.078,-3.2644 c 1.2756,-0.82 2.1345,-1.525 2.575,-2.1107 0.4434,-0.5873 0.6599,-1.2648 0.6554,-2.0358 -0.007,-0.7736 -0.233,-1.5114 -0.6868,-2.2175 -0.5772,-0.8978 -1.3139,-1.4692 -2.2145,-1.7153 -0.9005,-0.246 -1.9199,-0.1088 -3.0634,0.4099 0.3252,-0.6372 0.5386,-1.2458 0.6409,-1.8261 0.1049,-0.5819 0.1446,-1.5227 0.1202,-2.819 l -0.0405,-3.2655 -2.8826,1.853 -0.0527,3.7185 c -0.0249,1.3237 -0.0751,2.1809 -0.1502,2.571 -0.0743,0.3855 -0.2089,0.7078 -0.4076,0.9609 -0.2013,0.2551 -0.5783,0.5607 -1.1342,0.9179 l -0.4892,0.3146 -3.2052,-4.9867 z m 6.8457,5.3331 1.7841,-1.1469 c 1.1562,-0.7432 1.9083,-1.1559 2.26,-1.2444 0.349,-0.0867 0.6857,-0.0637 1.0007,0.0715 0.3177,0.1338 0.591,0.3821 0.8217,0.7407 0.2588,0.4028 0.3578,0.7951 0.3048,1.1829 -0.0553,0.3849 -0.258,0.7353 -0.6061,1.0493 -0.1797,0.1545 -0.7568,0.5454 -1.7325,1.1727 l -1.8817,1.2096 z m -8.0986,-4.4557 -2.5226,1.7951 0.8748,3.3438 -4.6386,3.3009 -2.8347,-1.9491 -2.4766,1.7626 12.7208,8.3696 2.4738,-1.7606 z m -1.016,7.6337 1.4389,5.4241 -4.6074,-3.1695 z m -10.9009,19.9292 4.2894,-3.7179 c 0.8513,-0.7381 1.4528,-1.3207 1.8091,-1.7518 0.3569,-0.436 0.6009,-0.906 0.7381,-1.4136 0.1347,-0.5106 0.152,-1.046 0.0491,-1.6081 -0.1029,-0.5624 -0.3566,-1.0775 -0.7569,-1.5393 -0.4328,-0.4991 -0.968,-0.8444 -1.599,-1.0275 -0.6336,-0.1857 -1.2711,-0.1797 -1.9148,0.011 0.4853,-0.7571 0.7033,-1.5148 0.6568,-2.2793 -0.0485,-0.7622 -0.3413,-1.453 -0.8802,-2.0747 -0.4241,-0.4892 -0.9479,-0.8662 -1.5755,-1.1316 -0.6273,-0.2647 -1.2571,-0.3659 -1.8921,-0.301 -0.6299,0.0652 -1.2617,0.3152 -1.8944,0.7503 -0.3923,0.2741 -1.2852,1.0046 -2.6745,2.1915 l -3.6527,3.1663 z m 0.627,-3.6652 -2.1427,-2.4718 1.4182,-1.2294 c 0.8413,-0.7293 1.3765,-1.1715 1.603,-1.324 0.4062,-0.2778 0.8087,-0.4037 1.2047,-0.3753 0.3963,0.0283 0.7416,0.2145 1.0401,0.559 0.288,0.3322 0.4271,0.6794 0.4243,1.0445 -0.002,0.3651 -0.1664,0.726 -0.4893,1.0803 -0.193,0.2109 -0.7988,0.758 -1.815,1.6387 z m -3.6878,-4.2545 -2.4934,-2.8763 2.0075,-1.7402 c 0.7787,-0.6749 1.2952,-1.0834 1.5418,-1.2226 0.3739,-0.2197 0.7594,-0.3044 1.1588,-0.2523 0.4011,0.0542 0.7653,0.2676 1.0964,0.6497 0.2815,0.3243 0.4402,0.6636 0.4774,1.0248 0.0402,0.3588 -0.0442,0.7205 -0.2503,1.0783 -0.2058,0.3577 -0.8019,0.9666 -1.7881,1.8212 z M 661.568,304.9673 c 3.1077,-1.0766 5.9726,-2.2776 8.5947,-3.6025 2.622,-1.3252 4.888,-2.9404 6.7977,-4.8453 1.91,-1.9049 3.3991,-4.1825 4.4672,-6.8329 1.0683,-2.6504 1.6027,-5.7974 1.6027,-9.4416 v -0.3728 c 0,-3.9756 -0.6316,-7.6198 -1.8941,-10.9326 -1.2623,-3.3129 -3.0104,-6.1495 -5.2439,-8.5099 -2.2337,-2.3604 -4.8557,-4.1826 -7.8661,-5.4664 -3.0104,-1.2838 -6.2963,-1.9255 -9.8569,-1.9255 -3.3021,0 -6.4582,0.5176 -9.4689,1.5321 -3.0104,1.0352 -5.7458,2.4018 -8.206,4.079 -2.4599,1.677 -4.6125,3.6029 -6.4579,5.7354 -1.8453,2.1328 -3.2533,4.3483 -4.2244,6.6674 l 11.3621,9.1933 c 1.2302,-1.7394 2.4602,-3.2922 3.6904,-4.6588 1.2302,-1.3665 2.5251,-2.5262 3.8846,-3.4786 1.3595,-0.9525 2.8485,-1.6773 4.4671,-2.1742 1.6186,-0.4969 3.399,-0.7452 5.3413,-0.7452 1.23,0 2.4764,0.1655 3.7389,0.4969 1.2626,0.3311 2.4118,0.8696 3.4475,1.6149 1.0358,0.7455 1.8774,1.6772 2.5249,2.7952 0.6474,1.139 0.9711,2.5262 0.9711,4.1825 0,1.1597 -0.2265,2.2777 -0.6797,3.3546 -0.4533,1.0766 -1.2303,2.1325 -2.3307,3.168 -1.1007,1.0352 -2.5897,2.029 -4.4671,3.0021 -1.8777,0.9525 -4.2406,1.8842 -7.0895,2.7953 -3.4959,1.0769 -6.6361,2.2983 -9.4198,3.6649 -2.7839,1.3666 -5.1471,3.0231 -7.0894,4.9694 -1.942,1.967 -3.4314,4.3067 -4.4671,7.0398 -1.0358,2.7332 -1.554,5.984 -1.554,9.711 0,4.0583 0.599,7.7232 1.7966,11.0154 1.1979,3.2715 2.865,6.0253 5.0015,8.2616 2.1364,2.2569 4.6451,3.9756 7.5262,5.1766 2.8809,1.2008 5.9726,1.8011 9.2744,1.8011 3.4311,0 6.539,-0.4969 9.3229,-1.4907 2.7836,-0.9938 5.2761,-2.2569 7.4778,-3.7891 2.2011,-1.5321 4.1269,-3.2714 5.7781,-5.2177 1.6506,-1.9466 3.0266,-3.8307 4.1273,-5.6529 l -11.1683,-9.1933 c -2.7839,3.3959 -5.4221,5.777 -7.9146,7.1436 -2.4925,1.3666 -5.0984,2.0497 -7.8176,2.0497 -1.6833,0 -3.1235,-0.269 -4.3215,-0.8073 -1.1976,-0.5385 -2.1852,-1.201 -2.9619,-1.9879 -0.777,-0.7866 -1.3759,-1.677 -1.7966,-2.6711 -0.4209,-0.9938 -0.6313,-1.9462 -0.6313,-2.8573 0,-1.6563 0.3399,-3.0849 1.0197,-4.286 0.6797,-1.201 1.6835,-2.2983 3.0106,-3.2921 1.3272,-0.9939 2.9781,-1.9049 4.9527,-2.7332 1.9747,-0.8283 4.2245,-1.6566 6.7493,-2.4849 z m -46.3229,-50.8116 -5.0499,15.4049 h -31.076 l -5.1471,-15.4049 h -14.567 l 27.8714,86.9639 h 14.6642 L 583.9747,285.09 h 21.2678 l -9.6143,29.8162 10.9738,12.0506 23.2101,-72.8011 z m -55.84,20.0016 c -1.5539,-3.147 -3.3828,-6.0046 -5.487,-8.572 -2.1039,-2.5676 -4.4186,-4.7832 -6.9435,-6.6467 -2.5251,-1.8635 -5.244,-3.2921 -8.1575,-4.2859 -2.9134,-0.9939 -5.9238,-1.4908 -9.0315,-1.4908 -4.7911,0 -9.3067,1.1594 -13.5473,3.4784 -4.2406,2.319 -7.9308,5.487 -11.071,9.504 -3.1399,4.017 -5.6163,8.7378 -7.429,14.1628 -1.8128,5.4249 -2.719,11.2016 -2.719,17.3304 0,6.1291 0.9062,11.9058 2.719,17.3308 1.8127,5.4249 4.2891,10.1457 7.429,14.1627 3.1402,4.017 6.8304,7.185 11.071,9.504 4.2406,2.319 8.7562,3.4784 13.5473,3.4784 3.1077,0 6.1181,-0.4969 9.0315,-1.4908 2.9135,-0.9938 5.6324,-2.4224 8.1575,-4.2859 2.5249,-1.8635 4.8396,-4.0791 6.9435,-6.6467 2.1042,-2.5674 3.9331,-5.425 5.487,-8.572 l -11.3624,-9.3177 c -1.8127,4.4725 -4.3052,8.0546 -7.4778,10.7464 -3.1719,2.6915 -6.7651,4.0374 -10.7793,4.0374 -2.8488,0 -5.5355,-0.766 -8.0603,-2.2984 -2.5251,-1.5321 -4.7262,-3.6025 -6.6036,-6.2115 -1.8779,-2.609 -3.367,-5.6733 -4.4674,-9.1933 -1.1007,-3.5201 -1.6509,-7.2678 -1.6509,-11.2434 0,-3.9753 0.5502,-7.723 1.6509,-11.243 1.1004,-3.5201 2.5895,-6.5844 4.4674,-9.1934 1.8774,-2.609 4.0785,-4.6794 6.6036,-6.2115 2.5248,-1.5324 5.2115,-2.2984 8.0603,-2.2984 4.0142,0 7.6074,1.3459 10.7793,4.0374 3.1726,2.6918 5.6651,6.274 7.4778,10.7465 z m -114.5934,15.9021 c 0,-2.9815 0.4048,-5.777 1.2138,-8.3858 0.8093,-2.609 1.9262,-4.8866 3.3506,-6.8329 1.4241,-1.9462 3.0915,-3.4993 5.0012,-4.6587 1.9099,-1.1597 3.933,-1.7394 6.0695,-1.7394 v -15.2807 c -4.0785,0 -7.8985,0.9732 -11.4593,2.9194 -3.5606,1.9463 -6.6847,4.6174 -9.3714,8.0133 -2.6867,3.3956 -4.7908,7.3712 -6.3124,11.9265 -1.5214,4.555 -2.2819,9.4416 -2.2819,14.6593 v 50.4392 h 13.7899 v -50.4392 -0.2483 z m 44.8663,51.0602 v -50.4392 c 0,-4.3894 -0.5664,-8.5512 -1.6997,-12.4854 -1.133,-3.934 -2.6867,-7.4954 -4.6613,-10.6841 -1.9746,-3.1887 -4.3217,-5.9219 -7.0407,-8.1995 -2.7193,-2.2776 -5.665,-3.9546 -8.8373,-5.0315 l -6.0208,14.2869 c 2.0067,0.1658 3.8844,0.849 5.6325,2.05 1.7478,1.2008 3.2856,2.7746 4.6128,4.7208 1.3272,1.9463 2.3632,4.1826 3.1076,6.7088 0.7447,2.5259 1.1169,5.197 1.1169,8.013 0,0.0827 -0.0162,0.1448 -0.0485,0.1862 -0.0323,0.0417 -0.0485,0.1038 -0.0485,0.1865 0,0.2483 0.0162,0.2897 0.0485,0.1242 0.0323,-0.1656 0.0485,-0.0207 0.0485,0.4348 0,0.4555 0,1.4494 0,2.9818 0,1.5321 0,4.1411 0,7.8267 0,3.6856 0,8.6755 0,14.9701 0,6.2946 0,14.411 0,24.3499 z M 385.0872,254.1557 v 86.9639 h 13.5958 v -86.9639 z m 15.6353,17.3929 h 29.9106 v -17.3929 h -22.3358 z m -85.6539,69.571 43.7981,-80.7523 v -6.2116 h -14.1786 l -29.6195,54.6631 V 254.1557 H 300.89 v 86.9639 z m 29.6195,0 h 14.1786 v -65.0985 l -14.1786,13.0444 z m -83.5172,1.1179 c 4.7909,0 9.2583,-1.18 13.4017,-3.5404 4.1434,-2.3604 7.7366,-5.5491 10.7796,-9.5661 3.0429,-4.017 5.4221,-8.7378 7.1376,-14.1627 1.7158,-5.425 2.5736,-11.2017 2.5736,-17.3308 0,-5.2177 -0.6151,-10.1871 -1.8451,-14.908 -1.23,-4.7208 -2.9781,-8.9861 -5.2444,-12.7961 -2.2657,-3.8098 -4.9685,-7.0605 -8.1088,-9.7523 -3.1399,-2.6918 -6.5874,-4.6174 -10.3425,-5.7768 l -6.798,14.7839 c 2.7193,0.2483 5.1956,1.18 7.4293,2.7952 2.2334,1.6149 4.1599,3.6856 5.7782,6.2116 1.6185,2.5262 2.8811,5.4663 3.7876,8.8205 0.9063,3.3545 1.3592,6.895 1.3592,10.622 0,3.8928 -0.5014,7.5784 -1.5052,11.0571 -1.0034,3.4784 -2.3791,6.5016 -4.1272,9.0689 -1.7479,2.5676 -3.8359,4.5967 -6.2637,6.0874 -2.4276,1.491 -5.0984,2.2362 -8.0119,2.2362 -2.9134,0 -5.5839,-0.7452 -8.0118,-2.2362 -2.4279,-1.4907 -4.532,-3.5198 -6.3125,-6.0874 -1.7804,-2.5673 -3.1722,-5.5905 -4.1757,-9.0689 -1.0035,-3.4787 -1.5055,-7.1643 -1.5055,-11.0571 0,-3.8925 0.502,-7.5781 1.5055,-11.0568 1.0035,-3.4784 2.3953,-6.5016 4.1757,-9.0689 1.7805,-2.5676 3.8846,-4.5967 6.3125,-6.0874 2.4279,-1.491 5.0984,-2.2362 8.0118,-2.2362 v -16.1504 c -4.7908,0 -9.2582,1.1593 -13.4016,3.4784 -4.1434,2.319 -7.7366,5.5077 -10.7796,9.566 -3.043,4.0584 -5.4221,8.7999 -7.1376,14.2249 -1.7158,5.4249 -2.5736,11.2016 -2.5736,17.3304 0,6.1291 0.8578,11.9058 2.5736,17.3308 1.7155,5.4249 4.0946,10.1457 7.1376,14.1627 3.043,4.017 6.6362,7.2057 10.7796,9.5661 4.1434,2.3604 8.6108,3.5404 13.4016,3.5404 z m -72.7378,-1.1179 c 4.6615,0 9.064,-1.1387 13.2074,-3.4164 4.1437,-2.2776 7.7531,-5.3835 10.8281,-9.3177 3.0753,-3.9339 5.5032,-8.5513 7.2836,-13.8521 1.7802,-5.3005 2.6705,-10.9326 2.6705,-16.8959 0,-5.9629 -0.8903,-11.5951 -2.6705,-16.8956 -1.7804,-5.3008 -4.2083,-9.9182 -7.2836,-13.8521 -3.075,-3.9342 -6.6844,-7.0401 -10.8281,-9.3177 -4.1434,-2.2777 -8.5459,-3.4164 -13.2074,-3.4164 h -5.6325 l -6.4094,15.1566 h 12.0419 c 2.7839,0 5.4224,0.7039 7.9146,2.1121 2.4928,1.408 4.6616,3.3749 6.5069,5.9009 1.8451,2.5262 3.3018,5.5284 4.3699,9.0071 1.0684,3.4784 1.6024,7.247 1.6024,11.3051 0,3.9756 -0.534,7.7026 -1.6024,11.1813 -1.0681,3.4784 -2.5248,6.4808 -4.3699,9.0068 -1.8453,2.5262 -4.0141,4.5139 -6.5069,5.9632 -2.4922,1.4494 -5.1307,2.1742 -7.9146,2.1742 H 172.895 v -71.8073 h -13.5959 v 86.9639 z m 195.2101,29.5126 v 43.5192 h 20.8794 c 10.3655,0 19.0446,-8.242 20.6229,-18.9156 0.1684,-1.1398 0.2563,-2.3071 0.2563,-3.4957 v -3.6034 c 0,-1.1889 -0.0879,-2.3562 -0.2563,-3.4968 v -4.1159 c 0,-2.7981 0.5137,-5.4726 1.4457,-7.9217 2.9339,-7.7142 10.0108,-13.1868 18.22,-13.1868 h 19.6653 v 6.1775 h -5.7551 -0.4128 -13.4974 c -7.6391,0 -13.9099,6.7309 -13.9099,14.931 v 6.1282 6.573 c -0.2965,6.0905 -2.4052,11.6883 -5.7558,16.1804 -4.8506,6.5035 -12.3032,10.6872 -20.6229,10.6872 h -26.4143 v -49.4606 z m 75.0782,1.3601 h 5.7551 v 5.3688 h -5.7551 -6.0299 -4.9343 -1.4729 -1.4731 c -1.588,0 -2.9463,1.4587 -2.9463,3.1629 v 17.9461 4.3396 5.2948 6.4724 6.1778 h -4.9338 -11.7856 v -6.9628 c 0.7098,-0.9419 1.4216,-1.9326 2.1351,-3.016 1.2013,-1.823 2.4106,-3.9067 3.6207,-6.0458 v 9.8468 h 6.0298 v -6.4724 -9.6344 -17.9461 c 0,-4.627 3.5694,-8.4583 7.8801,-8.4583 h 1.4731 v -0.0734 z m -54.1988,-6.2663 h -18.125 -2.7544 -5.5349 v -5.942 h 26.4143 c 8.2466,0 15.6416,4.11 20.4948,10.5165 -0.4277,1.302 -0.8164,2.6082 -1.1046,3.9223 -0.3042,1.3816 -0.4981,2.7715 -0.7093,3.9425 -3.4373,-7.3545 -10.5381,-12.4393 -18.6809,-12.4393 z m 0,10.459 h -11.1344 v 27.5071 h 11.1344 c 6.094,0 11.1348,-5.4113 11.1348,-11.952 v -3.6034 c 0,-6.5412 -5.0408,-11.9517 -11.1348,-11.9517 z m -16.3423,33.0964 v -38.6866 h 16.3423 c 8.968,0 16.3429,7.916 16.3429,17.5419 v 3.6034 c 0,9.6262 -7.3749,17.5413 -16.3429,17.5413 z m 32.7634,48.4827 c 71.3084,0 131.7187,-46.6163 152.4481,-111.0322 h -23.6897 c -19.7807,51.8462 -69.9633,88.6793 -128.7584,88.6793 -44.3111,0 -83.7272,-20.9242 -108.9272,-53.4265 h -27.1868 c 28.2425,45.4855 78.6354,75.7794 136.114,75.7794 z M 556.2816,212.0346 c -28.3875,-44.7868 -78.3873,-74.5225 -135.3379,-74.5225 -54.9564,0 -103.4444,27.6882 -132.2807,69.8743 h 28.1877 c 25.2604,-29.1099 62.5252,-47.5217 104.093,-47.5217 43.7398,0 82.717,20.3845 107.9558,52.1699 z m -369.3483,149.811 c 12.1671,1.6708 20.8465,-0.907 26.217,-3.5835 l 1.1435,4.8384 0.005,0.0264 0.006,0.0244 c 0.003,0.011 0.006,0.0235 0.008,0.034 0.5471,2.1384 -0.5989,4.3466 -2.6841,5.0729 -5.5562,1.9338 -12.7253,3.2624 -21.5317,2.6385 -1.3436,-0.095 -2.7278,-0.2367 -4.1471,-0.4272 -2.2617,-0.3033 -4.0535,-2.24 -3.9441,-4.5187 0.1245,-2.5835 2.4024,-4.4385 4.9261,-4.1052 z m 71.7171,-8.4058 23.3161,0.4734 49.9461,1.0117 c 2.2119,0.043 3.9694,1.8731 3.926,4.0861 l -0.2166,10.5738 c -0.0453,2.213 -1.8742,3.9693 -4.0875,3.9254 l -62.0334,-1.258 c -1.5571,-0.0323 -2.9543,-0.9612 -3.5819,-2.3831 l -2.6719,-6.0369 -19.1497,-0.3881 c -5.6903,-0.1145 -10.8037,-3.5201 -13.1063,-8.7233 -0.4904,-1.1027 -0.8252,-1.8587 -0.8252,-1.8587 z m 11.1923,6.1755 v 0 c 0.007,0.3924 0.0127,0.7736 0.0207,1.1424 0.0235,1.4783 0.0462,2.7677 0.0666,3.829 0.0425,2.1235 0.091,3.3359 0.091,3.3359 0,0 0.0961,-1.2096 0.225,-3.3282 0.0607,-1.0593 0.1347,-2.3479 0.222,-3.8228 0.0204,-0.3696 0.0431,-0.7503 0.0655,-1.1438 0.01,-0.2449 0.017,-0.2803 0.0751,-0.3399 0.0289,-0.0292 0.0638,-0.0467 0.0972,-0.0569 0.0136,-0.003 0.0479,-0.009 0.042,-0.005 -0.0133,-0.002 0.0399,0 0.0575,-10e-4 -0.0142,10e-4 0.04,0.004 0.0576,0.005 0.828,0.0414 1.6988,0.0845 2.6067,0.129 3.6357,0.1783 7.8752,0.35 12.4206,0.4992 2.2711,0.07 4.621,0.1403 7.0055,0.2134 2.3871,0.0558 4.8115,0.1142 7.2357,0.1735 2.4248,0.0391 4.8484,0.0788 7.2363,0.1182 2.3859,0.0241 4.7347,0.0476 7.0078,0.0711 4.5471,0.0343 8.7914,0.0332 12.4308,0.003 0.4541,-0.004 0.8994,-0.007 1.3348,-0.008 0.2169,-0.002 0.4329,-0.003 0.6455,-0.005 l 0.3129,-0.004 c 0.0734,9e-4 0.1471,0.005 0.2163,0.0235 0.2849,0.0573 0.5307,0.2688 0.6429,0.5321 0.1159,0.2134 0.0737,0.6384 0.0924,1.0054 0.0247,1.4775 0.0491,2.7664 0.0661,3.8277 0.0433,2.1228 0.0887,3.3363 0.0887,3.3363 0,0 0.0944,-1.2109 0.2273,-3.3295 0.0604,-1.0596 0.1338,-2.3471 0.2206,-3.8228 0.0105,-0.1848 0.0195,-0.3736 0.0309,-0.5627 0.0178,-0.1928 0.002,-0.464 -0.0828,-0.6976 -0.1602,-0.4706 -0.5573,-0.8822 -1.078,-1.0409 -0.1279,-0.0434 -0.2651,-0.0612 -0.4023,-0.0726 l -0.3189,-0.0173 c -0.2123,-0.0107 -0.4277,-0.0204 -0.6443,-0.0311 -0.4357,-0.0204 -0.879,-0.0411 -1.3323,-0.0621 -3.6348,-0.1786 -7.8774,-0.3512 -12.4194,-0.5009 -2.2742,-0.0694 -4.6213,-0.14 -7.0098,-0.212 -2.3845,-0.0579 -4.8081,-0.1171 -7.2332,-0.1778 -2.4253,-0.0368 -4.8489,-0.0773 -7.2354,-0.117 -2.3882,-0.0258 -4.7364,-0.0494 -7.0092,-0.0737 -4.5471,-0.0349 -8.7911,-0.0329 -12.4299,-0.002 -0.9105,0.008 -1.7822,0.015 -2.6122,0.0235 l -0.0952,0.002 -0.0978,0.007 c -0.1097,0.0125 -0.1721,0.0363 -0.258,0.0672 -0.1542,0.0669 -0.2885,0.1698 -0.3906,0.3016 -0.2214,0.2534 -0.2026,0.6517 -0.1927,0.7908 z M 619.6714,245.3085 c -3.3171,0.2603 -6.2172,-2.2181 -6.4766,-5.534 l -0.0312,-0.3997 c 0,0 -0.1389,-1.7666 -0.3815,-4.8561 -0.1443,-1.54 -0.4572,-3.3964 -0.7333,-5.5224 -0.1778,-1.059 -0.4264,-2.1765 -0.6537,-3.356 -0.1165,-0.5896 -0.2367,-1.1933 -0.3594,-1.8121 -0.1395,-0.6143 -0.3164,-1.2376 -0.4771,-1.8757 -0.3552,-1.2705 -0.6273,-2.6122 -1.0749,-3.9617 -0.4405,-1.3507 -0.8632,-2.7516 -1.3456,-4.1757 -0.5335,-1.4074 -1.082,-2.8537 -1.6413,-4.3314 -0.6347,-1.4471 -1.2832,-2.9251 -1.9431,-4.4288 -0.741,-1.4704 -1.4596,-2.9739 -2.2397,-4.4714 -0.8413,-1.4732 -1.6177,-2.992 -2.5208,-4.4649 -1.789,-2.9551 -3.6834,-5.9071 -5.7841,-8.7298 -2.0393,-2.8573 -4.2908,-5.576 -6.5345,-8.2131 -2.2972,-2.6019 -4.6111,-5.112 -6.9806,-7.4262 -2.3326,-2.3434 -4.725,-4.4796 -6.9947,-6.4871 -2.3114,-1.9678 -4.5133,-3.7993 -6.6186,-5.3977 -4.1789,-3.2332 -7.8231,-5.662 -10.3541,-7.2618 -1.266,-0.7957 -2.2587,-1.3879 -2.9024,-1.7535 -0.1585,-0.0896 -0.2985,-0.1693 -0.4204,-0.239 -0.0919,-0.0493 -0.1712,-0.0901 -0.2344,-0.1244 -0.1701,-0.0925 -0.2583,-0.1401 -0.2583,-0.1401 -0.3452,-0.1905 -0.6996,-0.4065 -1.0321,-0.6335 -5.4935,-3.7647 -6.8947,-11.2709 -3.13,-16.7641 3.7644,-5.4941 11.2694,-6.8956 16.7638,-3.1314 l 0.0255,0.0187 c 0,0 0.1131,0.0771 0.3311,0.2264 0.1313,0.0891 0.2926,0.1999 0.4859,0.3309 0.1613,0.1153 0.3481,0.2485 0.5598,0.4005 0.8422,0.6006 2.0044,1.4621 3.4367,2.5775 2.8562,2.2332 6.7862,5.4732 11.196,9.6472 2.2218,2.0681 4.529,4.4079 6.931,6.9106 2.3616,2.5455 4.8291,5.2443 7.223,8.1824 2.4299,2.9019 4.7925,6.0325 7.1116,9.2642 2.2705,3.2758 4.5229,6.6391 6.5457,10.1574 2.0761,3.4793 3.9311,7.1017 5.6441,10.7104 0.8648,1.7995 1.603,3.6516 2.3907,5.4412 0.7297,1.8204 1.3913,3.6462 2.067,5.4221 0.5882,1.8144 1.1654,3.5968 1.732,5.3419 0.4754,1.7725 0.9408,3.5053 1.3941,5.1922 0.3946,1.7013 0.7282,3.3695 1.0723,4.9722 0.3515,1.6007 0.5278,3.1867 0.7816,4.684 0.1114,0.7515 0.2381,1.4848 0.3282,2.2056 0.0697,0.7234 0.1406,1.4312 0.2075,2.1212 0.127,1.3796 0.2769,2.6816 0.36,3.9107 0.0828,2.4655 0.214,4.6049 0.2061,6.3689 -0.0774,3.5197 -0.1208,5.5323 -0.1208,5.5323 -0.0782,3.047 -2.4483,5.6305 -5.5505,5.8731 z M 560.4571,135.8422 v 0 c -2.3468,-0.7917 -4.8889,0.4702 -5.6795,2.8168 -0.7915,2.3473 0.4697,4.8897 2.8162,5.6797 2.3474,0.7906 4.8903,-0.4711 5.6792,-2.8173 0.792,-2.3463 -0.4705,-4.8892 -2.8159,-5.6792 z m 59.4575,100.838 v 0 c -1.0976,-0.3702 -2.287,0.2205 -2.6558,1.3167 -0.3696,1.097 0.2203,2.2869 1.3184,2.6566 1.0951,0.3691 2.285,-0.2206 2.6547,-1.319 0.3693,-1.0956 -0.2217,-2.2856 -1.3173,-2.6543 z m -397.76,112.8016 c 3.3066,-0.3581 6.2773,2.0341 6.6356,5.341 l 0.042,0.3988 c 0,0 0.1921,1.7612 0.5249,4.8433 0.1905,1.5347 0.5585,3.3806 0.8958,5.4978 0.2089,1.0531 0.4904,2.1623 0.7526,3.3353 0.1335,0.5859 0.2713,1.1857 0.4113,1.8 0.1593,0.61 0.3538,1.2285 0.5349,1.8615 0.3889,1.2602 0.7027,2.592 1.19,3.9276 0.4796,1.3386 0.9428,2.7253 1.468,4.1347 0.5749,1.3918 1.1654,2.8204 1.7686,4.2806 0.6769,1.4281 1.3677,2.8868 2.0724,4.3701 0.7838,1.4477 1.5468,2.9302 2.3703,4.4037 0.8836,1.4476 1.705,2.9432 2.6515,4.3883 1.8752,2.9007 3.856,5.7957 6.0384,8.5558 2.1231,2.7961 4.4535,5.4465 6.7742,8.0178 2.3729,2.5322 4.7603,4.9728 7.198,7.2159 2.3987,2.2748 4.8547,4.3389 7.1816,6.2787 2.3687,1.8984 4.6245,3.6649 6.776,5.1996 4.2715,3.1082 7.9854,5.4289 10.5636,6.9534 1.2874,0.758 2.2986,1.3206 2.9522,1.6676 0.1608,0.0845 0.3028,0.1604 0.4269,0.2265 0.0941,0.0465 0.1744,0.0853 0.2376,0.1171 0.174,0.0875 0.2622,0.132 0.2622,0.132 0.3503,0.1809 0.7103,0.3856 1.0499,0.6033 5.6019,3.6011 7.225,11.063 3.6236,16.6648 -3.6006,5.6019 -11.0622,7.2247 -16.6641,3.6239 l -0.0263,-0.0173 c 0,0 -0.1143,-0.074 -0.3379,-0.2166 -0.1324,-0.0853 -0.2974,-0.1916 -0.4938,-0.3169 -0.1656,-0.1109 -0.3569,-0.2384 -0.5735,-0.3841 -0.8589,-0.5752 -2.0449,-1.402 -3.5107,-2.4752 -2.9214,-2.1476 -6.9451,-5.2699 -11.4752,-9.3127 -2.2822,-2.0015 -4.6573,-4.2715 -7.1325,-6.7034 -2.4344,-2.4743 -4.9802,-5.0989 -7.46,-7.965 -2.5143,-2.8293 -4.9682,-5.8887 -7.3819,-9.0513 -2.3664,-3.2072 -4.7163,-6.5024 -6.8415,-9.9601 -2.1784,-3.4163 -4.1385,-6.9823 -5.9581,-10.5392 -0.9181,-1.7731 -1.7096,-3.6034 -2.5498,-5.3677 -0.7826,-1.7989 -1.4981,-3.6046 -2.226,-5.3592 -0.6412,-1.7963 -1.2714,-3.5609 -1.8879,-5.2883 -0.5286,-1.7578 -1.0451,-3.4764 -1.5477,-5.1492 -0.4453,-1.6891 -0.8263,-3.3468 -1.2183,-4.9388 -0.3992,-1.5896 -0.6211,-3.1691 -0.9182,-4.6581 -0.1341,-0.7487 -0.2826,-1.4775 -0.394,-2.1958 -0.0918,-0.7208 -0.1825,-1.4266 -0.2707,-2.1137 -0.1672,-1.3751 -0.3555,-2.6728 -0.4745,-3.8985 -0.1565,-2.4619 -0.3498,-4.5958 -0.3938,-6.3598 -0.0272,-3.5212 -0.0413,-5.5341 -0.0413,-5.5341 -0.0134,-3.047 2.2793,-5.6996 5.3756,-6.0341 z m 62.4141,107.674 v 0 c 2.3694,0.7211 4.873,-0.6154 5.595,-2.9841 0.7197,-2.3694 -0.616,-4.873 -2.984,-5.5941 -2.3684,-0.7206 -4.8737,0.6154 -5.5934,2.984 -0.7211,2.3692 0.6143,4.873 2.9824,5.5942 z m -62.4048,-99.0414 v 0 c 1.109,0.3376 2.2791,-0.2883 2.617,-1.3949 0.3373,-1.1075 -0.2886,-2.2788 -1.3964,-2.6164 -1.1063,-0.3371 -2.2779,0.2883 -2.6155,1.3958 -0.3367,1.1066 0.288,2.2782 1.3949,2.6155 z M 655.3962,233.4302 c -12.1672,-1.6701 -20.8466,0.9068 -26.2165,3.5842 l -1.1447,-4.8393 -0.006,-0.0258 -0.006,-0.0244 c -0.003,-0.0116 -0.006,-0.0233 -0.009,-0.0338 -0.5457,-2.1393 0.599,-4.3474 2.685,-5.0728 5.5553,-1.9347 12.725,-3.2627 21.5308,-2.6388 1.345,0.0952 2.7286,0.2367 4.1479,0.4272 2.261,0.3039 4.0542,2.2393 3.9433,4.5187 -0.1227,2.584 -2.4021,4.4385 -4.9257,4.1048 z m -71.7166,8.4062 -23.3169,-0.4731 -49.9453,-1.0126 c -2.2119,-0.0428 -3.9697,-1.8725 -3.9249,-4.0853 l 0.2146,-10.5737 c 0.0451,-2.2133 1.8757,-3.9703 4.0875,-3.9257 l 62.0346,1.258 c 1.5553,0.0326 2.9528,0.9615 3.5824,2.3831 l 2.6705,6.0366 19.1495,0.3884 c 5.6902,0.115 10.8039,3.5195 13.1065,8.723 0.4901,1.1033 0.8255,1.859 0.8255,1.859 z m -11.1923,-6.1759 v 0 c -0.006,-0.3926 -0.0127,-0.7735 -0.0204,-1.142 -0.0244,-1.478 -0.0476,-2.7684 -0.0675,-3.8294 -0.0428,-2.1231 -0.091,-3.3358 -0.091,-3.3358 0,0 -0.0952,1.2098 -0.2253,3.3285 -0.0604,1.0593 -0.1344,2.3473 -0.2217,3.8231 -0.0198,0.369 -0.0419,0.7494 -0.0666,1.1432 -0.009,0.2454 -0.015,0.2806 -0.0743,0.3396 -0.0289,0.0294 -0.0629,0.0476 -0.0972,0.0572 -0.0136,0.004 -0.0482,0.01 -0.0405,0.005 0.0122,0.002 -0.0417,0.001 -0.059,0.001 0.0142,-0.001 -0.0397,-0.003 -0.0572,-0.004 -0.8275,-0.0414 -1.6977,-0.0845 -2.6065,-0.1287 -3.6349,-0.1783 -7.8758,-0.3507 -12.42,-0.4998 -2.2717,-0.0694 -4.6213,-0.1397 -7.007,-0.2131 -2.3867,-0.0562 -4.8106,-0.1146 -7.2337,-0.1732 -2.4256,-0.0394 -4.8489,-0.0788 -7.2371,-0.1185 -2.386,-0.0241 -4.7356,-0.0476 -7.009,-0.0715 -4.5467,-0.0345 -8.7905,-0.0328 -12.4302,-0.002 -0.4535,0.004 -0.8994,0.007 -1.3351,0.008 -0.2166,0.002 -0.4329,0.003 -0.6452,0.005 l -0.3132,0.004 c -0.0734,-0.001 -0.1451,-0.005 -0.216,-0.0241 -0.2843,-0.0569 -0.5306,-0.2681 -0.6429,-0.5317 -0.1165,-0.2132 -0.0734,-0.639 -0.0913,-1.0058 -0.0252,-1.4777 -0.0496,-2.7657 -0.0666,-3.8279 -0.0442,-2.1223 -0.0896,-3.3361 -0.0896,-3.3361 0,0 -0.0943,1.2113 -0.2259,3.3299 -0.0609,1.0599 -0.1341,2.3474 -0.2216,3.8231 -0.0105,0.1839 -0.0199,0.3736 -0.0312,0.5624 -0.0173,0.1927 -9e-4,0.4634 0.0825,0.6979 0.1598,0.4697 0.5578,0.8815 1.0791,1.0406 0.1273,0.0433 0.2645,0.0615 0.4022,0.072 l 0.3184,0.0175 c 0.2131,0.0111 0.4274,0.0202 0.6443,0.0318 0.4362,0.0195 0.8787,0.0402 1.332,0.0618 3.636,0.1788 7.878,0.3506 12.4206,0.5009 2.2733,0.0691 4.621,0.14 7.0083,0.2123 2.3851,0.0572 4.8093,0.1168 7.2341,0.1768 2.4244,0.0377 4.8486,0.0774 7.2357,0.1171 2.3879,0.0267 4.7369,0.0502 7.0083,0.0749 4.5482,0.0343 8.7926,0.0326 12.4303,0.002 0.9116,-0.008 1.7821,-0.0154 2.6118,-0.0239 l 0.0967,-0.002 0.0972,-0.007 c 0.1088,-0.0131 0.1715,-0.0357 0.2582,-0.0678 0.1531,-0.066 0.2889,-0.1698 0.3892,-0.301 0.2223,-0.2534 0.2033,-0.6514 0.1939,-0.7912 z m -73.2419,-16.6989 h -5.2937 l -2.0959,5.5248 h -9.7325 l -2.0165,-5.5248 H 474.91 l 9.4215,24.2674 h 5.1917 z m -8.9818,9.6259 -3.373,8.9819 -3.276,-8.9819 z m -28.2674,-9.6259 v 24.2674 h 4.9144 v -24.2674 z m -30.1087,0 v 24.2674 h 10.3201 c 2.5931,0 4.4801,-0.2199 5.6554,-0.655 1.1806,-0.4349 2.118,-1.2087 2.8236,-2.3216 0.7066,-1.118 1.0621,-2.3893 1.0621,-3.8242 0,-1.8244 -0.5309,-3.3273 -1.5985,-4.5136 -1.0672,-1.1863 -2.6608,-1.9321 -4.7848,-2.2425 1.0567,-0.6154 1.9269,-1.2941 2.6098,-2.0336 0.6891,-0.7401 1.6163,-2.0563 2.7797,-3.943 l 2.9599,-4.7339 h -5.8575 l -3.5141,5.2986 c -1.2597,1.881 -2.1243,3.0679 -2.5926,3.5589 -0.4632,0.4858 -0.955,0.8246 -1.4746,1.006 -0.5249,0.1803 -1.3498,0.271 -2.4794,0.271 h -0.9947 v -10.1345 z m 4.9144,13.9981 h 3.6264 c 2.3502,0 3.8131,0.1017 4.4007,0.2993 0.5814,0.1979 1.0452,0.5426 1.3729,1.0281 0.333,0.4856 0.4972,1.0959 0.4972,1.825 0,0.8184 -0.2203,1.4743 -0.6557,1.9825 -0.4348,0.5026 -1.0502,0.8193 -1.8417,0.9491 -0.4005,0.0567 -1.5928,0.0847 -3.5753,0.0847 h -3.8245 z m -13.3316,-13.9981 h -5.2934 l -2.096,5.5248 h -9.7325 l -2.0165,-5.5248 h -5.1971 l 9.4218,24.2674 h 5.1917 z m -8.9816,9.6259 -3.373,8.9819 -3.276,-8.9819 z m -41.2886,-9.6259 v 24.2674 h 17.9637 v -4.1006 h -13.049 v -5.3895 h 12.1337 v -4.1009 h -12.1337 v -6.5749 h 13.5241 v -4.1015 z m -30.2783,24.2674 h 9.7053 c 1.9261,0 3.3551,-0.0785 4.2987,-0.2369 0.9493,-0.1639 1.791,-0.497 2.5359,-0.9998 0.7464,-0.5086 1.368,-1.1806 1.8649,-2.0223 0.4966,-0.8416 0.7452,-1.7912 0.7452,-2.8354 0,-1.1299 -0.3052,-2.1754 -0.9144,-3.1184 -0.6103,-0.9491 -1.4414,-1.6549 -2.486,-2.1294 1.4743,-0.4354 2.6039,-1.1699 3.4004,-2.2094 0.7915,-1.0391 1.1861,-2.2594 1.1861,-3.6657 0,-1.1072 -0.254,-2.1804 -0.7677,-3.2258 -0.5142,-1.0452 -1.2149,-1.8808 -2.1072,-2.5079 -0.8873,-0.6219 -1.9829,-1.0057 -3.2874,-1.1525 -0.8138,-0.0848 -2.7853,-0.1412 -5.9088,-0.1639 h -8.265 z m 4.915,-4.0328 v -5.5925 h 3.2083 c 1.904,0 3.0903,0.0284 3.5532,0.0848 0.8359,0.0961 1.4975,0.3844 1.9772,0.8643 0.4804,0.4799 0.7177,1.1069 0.7177,1.8867 0,0.7512 -0.2089,1.3555 -0.6216,1.8247 -0.4125,0.4685 -1.0285,0.7509 -1.8417,0.8472 -0.4856,0.0564 -1.8808,0.0848 -4.18,0.0848 z m 0,-9.6256 v -6.5075 h 4.5417 c 1.7626,0 2.8868,0.0502 3.3607,0.1465 0.7291,0.1358 1.3224,0.4575 1.7796,0.9718 0.4575,0.5193 0.6894,1.203 0.6894,2.0673 0,0.7344 -0.1754,1.3504 -0.5315,1.8586 -0.3495,0.5089 -0.864,0.881 -1.5304,1.1126 -0.667,0.2316 -2.1186,0.3507 -4.3495,0.3507 z m -35.193,-10.609 v 24.2674 h 10.3207 c 2.5926,0 4.4796,-0.2199 5.6548,-0.655 1.1801,-0.4349 2.1175,-1.2087 2.8242,-2.3216 0.7055,-1.118 1.0616,-2.3893 1.0616,-3.8242 0,-1.8244 -0.5307,-3.3273 -1.5985,-4.5136 -1.0678,-1.1863 -2.6603,-1.9321 -4.7852,-2.2425 1.0565,-0.6154 1.9273,-1.2941 2.6102,-2.0336 0.6894,-0.7401 1.6163,-2.0563 2.7796,-3.943 l 2.9597,-4.7339 h -5.8572 l -3.5136,5.2986 c -1.2603,1.881 -2.1243,3.0679 -2.5931,3.5589 -0.4638,0.4858 -0.9547,0.8246 -1.4743,1.006 -0.5258,0.1803 -1.3507,0.271 -2.4803,0.271 h -0.9938 v -10.1345 z m 4.9148,13.9981 h 3.626 c 2.35,0 3.8129,0.1017 4.4008,0.2993 0.582,0.1979 1.0446,0.5426 1.3723,1.0281 0.3336,0.4856 0.4972,1.0959 0.4972,1.825 0,0.8184 -0.2203,1.4743 -0.6546,1.9825 -0.4359,0.5026 -1.0513,0.8193 -1.8422,0.9491 -0.4005,0.0567 -1.5928,0.0847 -3.5759,0.0847 h -3.8236 z m -13.3322,-13.9981 h -5.2929 l -2.0959,5.5248 h -9.7333 l -2.0166,-5.5248 h -5.1971 l 9.4227,24.2674 h 5.1914 z m -8.9819,9.6259 -3.3727,8.9819 -3.2762,-8.9819 z m -43.158,14.6415 h 9.7049 c 1.9262,0 3.3554,-0.0785 4.2991,-0.2369 0.9493,-0.1639 1.7906,-0.497 2.5358,-0.9998 0.7458,-0.5086 1.3672,-1.1806 1.8649,-2.0223 0.497,-0.8416 0.7453,-1.7912 0.7453,-2.8354 0,-1.1299 -0.3053,-2.1754 -0.9151,-3.1184 -0.6103,-0.9491 -1.4408,-1.6549 -2.4854,-2.1294 1.4746,-0.4354 2.6042,-1.1699 3.4005,-2.2094 0.7908,-1.0391 1.1866,-2.2594 1.1866,-3.6657 0,-1.1072 -0.2543,-2.1804 -0.7685,-3.2258 -0.5145,-1.0452 -1.2144,-1.8808 -2.1067,-2.5079 -0.887,-0.6219 -1.9831,-1.0057 -3.2882,-1.1525 -0.8136,-0.0848 -2.7845,-0.1412 -5.9086,-0.1639 h -8.2646 z m 4.9147,-4.0328 v -5.5925 h 3.2085 c 1.9035,0 3.0895,0.0284 3.5538,0.0848 0.8356,0.0961 1.497,0.3844 1.9766,0.8643 0.4799,0.4799 0.7177,1.1069 0.7177,1.8867 0,0.7512 -0.2095,1.3555 -0.6216,1.8247 -0.4127,0.4685 -1.0287,0.7509 -1.8417,0.8472 -0.4853,0.0564 -1.8813,0.0848 -4.1805,0.0848 z m 0,-9.6256 v -6.5075 h 4.5414 c 1.7623,0 2.8873,0.0502 3.3616,0.1465 0.7282,0.1358 1.3215,0.4575 1.7795,0.9718 0.457,0.5193 0.6886,1.203 0.6886,2.0673 0,0.7344 -0.1749,1.3504 -0.5309,1.8586 -0.3501,0.5089 -0.864,0.881 -1.531,1.1126 -0.6659,0.2316 -2.1178,0.3507 -4.349,0.3507 z M 556.4103,119.118 C 518.8331,90.6009 471.9779,73.6705 421.1651,73.6705 c -107.2907,0 -196.9449,75.4497 -218.8406,176.1808 h 10.6407 C 234.6673,154.9049 319.6386,84.0662 421.1651,84.0662 c 46.2705,0 89.1017,14.7175 124.073,39.7219 3.2145,-2.6677 7.1249,-4.2585 11.1722,-4.6701 z M 421.1651,502.3443 c 95.8697,0 176.3391,-65.9154 198.5891,-154.8924 h -10.7351 c -21.9991,83.177 -97.7604,144.4966 -187.854,144.4966 -42.6319,0 -82.0522,-13.7381 -114.0874,-37.0188 -0.2676,3.2755 -1.313,6.5291 -3.2037,9.4706 -0.1511,0.235 -0.307,0.4637 -0.4657,0.6905 33.3031,23.4661 73.9193,37.2535 117.7568,37.2535 z M 539.7795,130.7837 c -33.4608,-23.8339 -74.403,-37.8515 -118.6144,-37.8515 -96.5956,0 -177.5576,66.9183 -199.0842,156.9191 h 10.7016 c 21.2956,-84.2065 97.5583,-146.5236 188.3826,-146.5236 43.8115,0 84.2346,14.504 116.7344,38.9673 -0.4745,-3.854 0.1202,-7.852 1.88,-11.5113 z" /></clipPath><linearGradient
       id="linearGradient48"
       spreadMethod="pad"
       gradientUnits="userSpaceOnUse"
       y2="297.64001"
       x2="683.47998"
       y1="297.64001"
       x1="158.84"><stop
         id="stop20"
         offset="0"
         style="stop-opacity:1;stop-color:#b66921" /><stop
         id="stop22"
         offset="0.08"
         style="stop-opacity:1;stop-color:#ce8d2f" /><stop
         id="stop24"
         offset="0.17"
         style="stop-opacity:1;stop-color:#ce8d2f" /><stop
         id="stop26"
         offset="0.27"
         style="stop-opacity:1;stop-color:#e0b357" /><stop
         id="stop28"
         offset="0.34"
         style="stop-opacity:1;stop-color:#fdf09d" /><stop
         id="stop30"
         offset="0.4"
         style="stop-opacity:1;stop-color:#ffffbf" /><stop
         id="stop32"
         offset="0.48"
         style="stop-opacity:1;stop-color:#fdf09d" /><stop
         id="stop34"
         offset="0.58"
         style="stop-opacity:1;stop-color:#e0b357" /><stop
         id="stop36"
         offset="0.67"
         style="stop-opacity:1;stop-color:#ce8d2f" /><stop
         id="stop38"
         offset="0.77"
         style="stop-opacity:1;stop-color:#c37c27" /><stop
         id="stop40"
         offset="0.83"
         style="stop-opacity:1;stop-color:#cd8326" /><stop
         id="stop42"
         offset="0.88"
         style="stop-opacity:1;stop-color:#e6a339" /><stop
         id="stop44"
         offset="0.93"
         style="stop-opacity:1;stop-color:#f1b548" /><stop
         id="stop46"
         offset="1"
         style="stop-opacity:1;stop-color:#b66921" /></linearGradient></defs><g
     transform="matrix(1.3333333,0,0,-1.3333333,0,793.7008)"
     id="g10"><g
       id="g12"><g
         clip-path="url(#clipPath18)"
         id="g14"><path
           id="path50"
           style="fill:url(#linearGradient48);fill-rule:evenodd;stroke:none"
           d="m 421.1651,521.6051 c 106.5708,0 195.7499,-74.4372 218.399,-174.1532 h -10.6818 c -22.4416,93.924 -106.9163,163.7577 -207.7172,163.7577 -46.4479,0 -89.4279,-14.8328 -124.4718,-40.0118 -4.2559,2.4168 -9.2801,3.2828 -14.1199,2.3828 38.1234,30.0758 86.2622,48.0245 138.5917,48.0245 z m 117.7566,-366.7116 -9.2803,10.7411 7.9509,6.8695 1.5681,-1.8153 -5.7756,-4.9899 2.0611,-2.3853 5.3705,4.64 1.5681,-1.815 -5.3705,-4.64 2.5143,-2.9104 5.9857,5.1713 1.5684,-1.8151 z m -20.0268,2.306 4.1091,3.231 c 0.9272,0.729 1.6886,1.2146 2.287,1.4536 0.8031,0.3206 1.6336,0.4186 2.4866,0.2911 0.8535,-0.1236 1.6806,-0.4485 2.4862,-0.9706 0.8014,-0.5216 1.6158,-1.3062 2.437,-2.3505 0.7228,-0.9193 1.2297,-1.7989 1.5239,-2.6436 0.3611,-1.0312 0.4805,-2.0007 0.358,-2.9086 -0.0893,-0.6883 -0.3841,-1.3989 -0.8787,-2.1328 -0.3717,-0.5485 -0.9726,-1.1472 -1.8037,-1.8008 l -4.231,-3.3271 z m 3.7426,-0.1088 5.8085,-7.3868 1.6753,1.3172 c 0.6258,0.4924 1.0493,0.8842 1.2721,1.1727 0.2946,0.379 0.4737,0.7716 0.5409,1.1778 0.07,0.4079 -0.017,0.9196 -0.2585,1.5367 -0.239,0.6194 -0.7007,1.3617 -1.3791,2.224 -0.6777,0.8621 -1.2719,1.4627 -1.7889,1.8046 -0.5142,0.3438 -1.0092,0.5349 -1.4859,0.58 -0.4748,0.0428 -0.9593,-0.0522 -1.4514,-0.292 -0.3671,-0.1749 -1.0111,-0.6228 -1.9256,-1.3417 z m -12.2887,-13.7214 c -0.7801,1.2192 -1.2515,2.3607 -1.4177,3.4237 -0.1201,0.7821 -0.098,1.569 0.0624,2.3541 0.1607,0.7852 0.4459,1.4738 0.8538,2.0685 0.5448,0.7917 1.3031,1.5007 2.2774,2.124 1.7642,1.129 3.5237,1.4817 5.284,1.0664 1.7592,-0.4198 3.2621,-1.6041 4.5105,-3.5549 1.2376,-1.9344 1.6804,-3.7851 1.3292,-5.5477 -0.3493,-1.7652 -1.406,-3.2097 -3.1621,-4.3334 -1.7784,-1.1381 -3.5424,-1.5017 -5.288,-1.0848 -1.7439,0.4142 -3.2281,1.5747 -4.4495,3.4841 z m 2.4366,1.6727 c 0.8671,-1.3555 1.8389,-2.1812 2.9137,-2.4817 1.0732,-0.2979 2.0937,-0.1395 3.0569,0.4768 0.9658,0.6179 1.5336,1.4714 1.7105,2.5616 0.1729,1.0914 -0.1843,2.3298 -1.073,3.7188 -0.8778,1.372 -1.8337,2.2039 -2.8686,2.4911 -1.0341,0.2917 -2.0483,0.1171 -3.0473,-0.5221 -0.9963,-0.6376 -1.5817,-1.4945 -1.7552,-2.5662 -0.1712,-1.0747 0.1814,-2.3006 1.063,-3.6783 z m -8.3032,-6.77 -1.0882,2.1379 5.4949,2.797 2.5691,-5.0477 c -0.2679,-0.7923 -0.8099,-1.6429 -1.6237,-2.5574 -0.8122,-0.9102 -1.7394,-1.6308 -2.7817,-2.1611 -1.3223,-0.673 -2.6146,-0.9822 -3.8815,-0.9264 -1.2636,0.0575 -2.4088,0.4793 -3.4296,1.2611 -1.021,0.7815 -1.8422,1.7836 -2.4613,2.9999 -0.6715,1.319 -0.991,2.632 -0.9635,3.9402 0.032,1.3065 0.4371,2.5064 1.2214,3.5949 0.5984,0.8348 1.499,1.5568 2.7063,2.1713 1.5695,0.7988 2.9653,1.0936 4.1845,0.8839 1.2177,-0.2146 2.2493,-0.8351 3.096,-1.8723 l -2.3012,-1.7719 c -0.4932,0.5315 -1.0791,0.852 -1.7552,0.964 -0.6718,0.1106 -1.3756,-0.0215 -2.1118,-0.3963 -1.1132,-0.5666 -1.8196,-1.3711 -2.1152,-2.4151 -0.2954,-1.0437 -0.0902,-2.2629 0.6188,-3.6558 0.7659,-1.5047 1.6727,-2.4633 2.7204,-2.8752 1.0508,-0.4107 2.1141,-0.3441 3.1949,0.2061 0.5329,0.2712 1.0148,0.65 1.4446,1.1318 0.4325,0.4834 0.7613,0.9732 0.9941,1.4701 l -0.8167,1.605 z m -8.6366,-9.932 -5.8487,12.9336 2.6192,1.1846 5.8487,-12.9339 z m -18.3629,7.8849 5.2844,2.0732 c 1.0488,0.4116 1.8439,0.6741 2.3913,0.7895 0.5516,0.1136 1.0814,0.1119 1.5948,-0.003 0.5145,-0.1176 0.9966,-0.3509 1.4471,-0.7027 0.4504,-0.3523 0.7886,-0.8161 1.0119,-1.385 0.2412,-0.6151 0.2985,-1.2495 0.1678,-1.8933 -0.1292,-0.6474 -0.4308,-1.2092 -0.8983,-1.6908 0.8955,0.0782 1.6679,-0.0803 2.3236,-0.4763 0.6525,-0.3968 1.1285,-0.9768 1.4292,-1.7427 0.2364,-0.6026 0.3271,-1.2416 0.2707,-1.9205 -0.0567,-0.6789 -0.2593,-1.2835 -0.6114,-1.8158 -0.3501,-0.5279 -0.8649,-0.9712 -1.544,-1.3298 -0.4249,-0.2199 -1.4862,-0.6718 -3.1825,-1.3515 l -4.5,-1.7657 -5.1846,13.214 z m 3.5377,-1.1461 1.1948,-3.0453 1.7473,0.6857 c 1.0363,0.4065 1.6764,0.6755 1.9165,0.8051 0.4348,0.231 0.733,0.5289 0.8917,0.8929 0.1591,0.3642 0.1542,0.7563 -0.0121,1.1806 -0.1608,0.4093 -0.4037,0.6937 -0.7286,0.8609 -0.3245,0.1673 -0.7202,0.1896 -1.1837,0.068 -0.2764,-0.0731 -1.0423,-0.3557 -2.2941,-0.847 z m 2.0565,-5.2415 1.3901,-3.5433 2.4733,0.9703 c 0.9595,0.3764 1.5607,0.6446 1.7985,0.7979 0.368,0.2293 0.6222,0.5318 0.7614,0.9094 0.1381,0.3807 0.1182,0.8022 -0.0663,1.273 -0.157,0.3997 -0.3838,0.6976 -0.6863,0.8983 -0.2993,0.2021 -0.6587,0.2954 -1.0715,0.2789 -0.4121,-0.0161 -1.2282,-0.2616 -2.4432,-0.7384 z m -23.7617,-13.2826 -3.1921,13.8313 10.2382,2.3627 0.5394,-2.3371 -7.4372,-1.7164 0.7089,-3.0716 6.9157,1.5959 0.5394,-2.3372 -6.9157,-1.5962 0.8649,-3.7474 7.7077,1.7787 0.5394,-2.3374 z m -27.3002,3.4154 c -0.1097,1.4432 0.0156,2.672 0.3725,3.6868 0.2645,0.7458 0.6565,1.4284 1.1699,2.044 0.513,0.6157 1.0904,1.0871 1.7314,1.4177 0.8546,0.4393 1.8581,0.7049 3.0112,0.7925 2.0889,0.159 3.8055,-0.3634 5.1593,-1.5624 1.3507,-1.2028 2.1138,-2.9577 2.2896,-5.2671 0.1743,-2.2898 -0.3118,-4.1295 -1.4559,-5.5156 -1.1432,-1.3893 -2.7581,-2.1615 -4.837,-2.3196 -2.105,-0.1605 -3.8313,0.3543 -5.1713,1.5482 -1.3399,1.1903 -2.0976,2.9155 -2.2697,5.1755 z m 2.9384,0.3198 c 0.1219,-1.6047 0.5868,-2.7921 1.3913,-3.5657 0.8044,-0.7708 1.7784,-1.114 2.9182,-1.0273 1.1432,0.087 2.0475,0.5701 2.7196,1.4465 0.669,0.8793 0.9408,2.1391 0.8158,3.7832 -0.1236,1.6245 -0.5717,2.8097 -1.3473,3.5526 -0.7727,0.7467 -1.7487,1.0732 -2.9313,0.9831 -1.1795,-0.0899 -2.1008,-0.5675 -2.761,-1.4295 -0.6596,-0.8655 -0.9294,-2.1121 -0.8053,-3.7429 z m -13.8331,-7.71 -0.3784,14.0709 2.8735,0.0771 0.3141,-11.6728 7.1149,0.1914 0.0644,-2.3978 z m -13.2976,0.3589 0.3799,14.1897 10.5035,-0.2812 -0.0641,-2.3979 -7.63,0.2044 -0.0842,-3.1512 7.0948,-0.19 -0.0643,-2.3978 -7.0948,0.1899 -0.1029,-3.8446 7.9072,-0.2118 -0.0641,-2.3981 z m -12.4557,15.783 5.6325,-0.7069 c 1.1179,-0.1403 1.9414,-0.2903 2.4777,-0.4505 0.5386,-0.1644 1.0029,-0.4192 1.3992,-0.765 0.3954,-0.3498 0.7075,-0.7852 0.9343,-1.3096 0.2273,-0.5247 0.3025,-1.0939 0.2265,-1.7003 -0.0825,-0.6556 -0.3353,-1.2401 -0.7583,-1.743 -0.4232,-0.5065 -0.9567,-0.8558 -1.5976,-1.055 0.8238,-0.3598 1.4261,-0.8683 1.8125,-1.5296 0.3835,-0.6608 0.5241,-1.3978 0.4215,-2.2142 -0.0805,-0.6423 -0.3064,-1.2469 -0.6806,-1.8161 -0.3747,-0.5689 -0.8419,-1.0032 -1.4057,-1.302 -0.5598,-0.2959 -1.2243,-0.439 -1.9919,-0.4294 -0.4785,0.0102 -1.6268,0.121 -3.4415,0.3353 l -4.7963,0.6021 z m 2.5586,-2.6986 -0.4074,-3.2456 1.8621,-0.2339 c 1.105,-0.1386 1.7955,-0.2086 2.0685,-0.2097 0.4921,-0.005 0.8968,0.1139 1.2101,0.3577 0.3138,0.2438 0.4974,0.5904 0.5541,1.0426 0.0547,0.4362 -0.0226,0.8022 -0.2279,1.1043 -0.2049,0.3022 -0.542,0.5111 -1.0071,0.6259 -0.2778,0.0681 -1.0854,0.1863 -2.4197,0.3538 z m -0.701,-5.5865 -0.4743,-3.7769 2.636,-0.3308 c 1.0227,-0.1284 1.6789,-0.1805 1.9613,-0.1596 0.4328,0.0256 0.8005,0.1693 1.1035,0.4343 0.3033,0.2682 0.4875,0.648 0.5505,1.1497 0.0535,0.4261 -0.003,0.7963 -0.1729,1.1175 -0.1659,0.3203 -0.4371,0.574 -0.8073,0.7571 -0.37,0.1831 -1.2039,0.3577 -2.4988,0.5202 z m -5.1364,-5.5601 -3.047,0.549 -0.6335,3.3976 -5.6027,1.0097 -1.7339,-2.9712 -2.9917,0.5391 7.9412,12.9923 2.9886,-0.5383 z m -4.172,6.4729 -1.0097,5.5202 -2.8174,-4.8306 z m -12.0402,2.247 2.4386,-1.5758 c -0.8359,-1.3878 -1.8351,-2.3102 -2.9959,-2.7717 -1.1599,-0.4584 -2.4712,-0.4819 -3.937,-0.0672 -1.8156,0.5137 -3.1312,1.5557 -3.9504,3.1266 -0.8158,1.5702 -0.9213,3.4305 -0.3124,5.5826 0.6435,2.2737 1.732,3.8747 3.2613,4.8019 1.5293,0.9269 3.2527,1.1194 5.1667,0.5777 1.6724,-0.4734 2.8896,-1.3536 3.6524,-2.6374 0.4578,-0.7614 0.6846,-1.7319 0.6855,-2.9171 l -2.9112,0.1233 c 0.0374,0.7517 -0.1412,1.4068 -0.5369,1.9616 -0.3991,0.5559 -0.9646,0.9357 -1.696,1.1426 -1.0139,0.2872 -1.94,0.1576 -2.7757,-0.3923 -0.8379,-0.5459 -1.4856,-1.6333 -1.9459,-3.261 -0.4879,-1.7234 -0.5245,-3.0418 -0.1114,-3.9486 0.4155,-0.9105 1.1196,-1.5049 2.1146,-1.7864 0.7345,-0.2078 1.4329,-0.1548 2.0931,0.1633 0.6599,0.318 1.2481,0.9413 1.7606,1.8779 z m -21.3951,1.1336 -2.8224,1.2725 0.2109,3.45 -5.1897,2.3403 -2.4038,-2.4611 -2.7711,1.2498 10.8595,10.6742 2.768,-1.2484 z m -2.4746,7.2924 0.3614,5.6001 -3.9067,-4.0014 z m -15.5248,17.0254 5.0559,-2.5806 c 1.0037,-0.5122 1.7271,-0.9335 2.1767,-1.2665 0.451,-0.3379 0.8008,-0.7354 1.0556,-1.1954 0.2532,-0.4635 0.3983,-0.9788 0.4334,-1.5494 0.0352,-0.5706 -0.0878,-1.1313 -0.3656,-1.6759 -0.3005,-0.5884 -0.7373,-1.0519 -1.3059,-1.381 -0.5704,-0.3322 -1.1909,-0.4794 -1.8613,-0.4487 0.6526,-0.6186 1.046,-1.3017 1.1843,-2.0552 0.1358,-0.7514 0.0173,-1.4924 -0.3568,-2.2254 -0.2943,-0.5766 -0.7124,-1.0681 -1.2581,-1.476 -0.5456,-0.4077 -1.1327,-0.6571 -1.7645,-0.7464 -0.6273,-0.0879 -1.3006,0.003 -2.0191,0.2738 -0.4465,0.1721 -1.4888,0.6673 -3.1221,1.4859 l -4.3056,2.1978 z m 1.4879,-3.4081 -1.487,-2.9134 1.6716,-0.8532 c 0.9918,-0.5063 1.6174,-0.8071 1.8737,-0.9012 0.4612,-0.172 0.8821,-0.1978 1.2597,-0.0751 0.3778,0.1225 0.6684,0.3861 0.8756,0.792 0.1998,0.3918 0.2514,0.7622 0.1613,1.116 -0.0899,0.3538 -0.3356,0.665 -0.7342,0.9312 -0.2378,0.1585 -0.9572,0.5442 -2.1549,1.1557 z m -2.5597,-5.015 -1.7302,-3.3902 2.366,-1.2076 c 0.9182,-0.4686 1.5174,-0.7413 1.7901,-0.8172 0.4156,-0.1233 0.8104,-0.1134 1.1855,0.0328 0.3764,0.1491 0.6789,0.4434 0.9088,0.8938 0.1953,0.3827 0.2678,0.7501 0.2174,1.1098 -0.0471,0.3577 -0.2157,0.6885 -0.5018,0.9867 -0.2854,0.2979 -1.0102,0.7458 -2.1727,1.3391 z m -17.49,3.431 7.6756,11.9407 5.078,-3.2644 c 1.2756,-0.82 2.1345,-1.525 2.575,-2.1107 0.4434,-0.5873 0.6599,-1.2648 0.6554,-2.0358 -0.007,-0.7736 -0.233,-1.5114 -0.6868,-2.2175 -0.5772,-0.8978 -1.3139,-1.4692 -2.2145,-1.7153 -0.9005,-0.246 -1.9199,-0.1088 -3.0634,0.4099 0.3252,-0.6372 0.5386,-1.2458 0.6409,-1.8261 0.1049,-0.5819 0.1446,-1.5227 0.1202,-2.819 l -0.0405,-3.2655 -2.8826,1.853 -0.0527,3.7185 c -0.0249,1.3237 -0.0751,2.1809 -0.1502,2.571 -0.0743,0.3855 -0.2089,0.7078 -0.4076,0.9609 -0.2013,0.2551 -0.5783,0.5607 -1.1342,0.9179 l -0.4892,0.3146 -3.2052,-4.9867 z m 6.8457,5.3331 1.7841,-1.1469 c 1.1562,-0.7432 1.9083,-1.1559 2.26,-1.2444 0.349,-0.0867 0.6857,-0.0637 1.0007,0.0715 0.3177,0.1338 0.591,0.3821 0.8217,0.7407 0.2588,0.4028 0.3578,0.7951 0.3048,1.1829 -0.0553,0.3849 -0.258,0.7353 -0.6061,1.0493 -0.1797,0.1545 -0.7568,0.5454 -1.7325,1.1727 l -1.8817,1.2096 z m -8.0986,-4.4557 -2.5226,1.7951 0.8748,3.3438 -4.6386,3.3009 -2.8347,-1.9491 -2.4766,1.7626 12.7208,8.3696 2.4738,-1.7606 z m -1.016,7.6337 1.4389,5.4241 -4.6074,-3.1695 z m -10.9009,19.9292 4.2894,-3.7179 c 0.8513,-0.7381 1.4528,-1.3207 1.8091,-1.7518 0.3569,-0.436 0.6009,-0.906 0.7381,-1.4136 0.1347,-0.5106 0.152,-1.046 0.0491,-1.6081 -0.1029,-0.5624 -0.3566,-1.0775 -0.7569,-1.5393 -0.4328,-0.4991 -0.968,-0.8444 -1.599,-1.0275 -0.6336,-0.1857 -1.2711,-0.1797 -1.9148,0.011 0.4853,-0.7571 0.7033,-1.5148 0.6568,-2.2793 -0.0485,-0.7622 -0.3413,-1.453 -0.8802,-2.0747 -0.4241,-0.4892 -0.9479,-0.8662 -1.5755,-1.1316 -0.6273,-0.2647 -1.2571,-0.3659 -1.8921,-0.301 -0.6299,0.0652 -1.2617,0.3152 -1.8944,0.7503 -0.3923,0.2741 -1.2852,1.0046 -2.6745,2.1915 l -3.6527,3.1663 z m 0.627,-3.6652 -2.1427,-2.4718 1.4182,-1.2294 c 0.8413,-0.7293 1.3765,-1.1715 1.603,-1.324 0.4062,-0.2778 0.8087,-0.4037 1.2047,-0.3753 0.3963,0.0283 0.7416,0.2145 1.0401,0.559 0.288,0.3322 0.4271,0.6794 0.4243,1.0445 -0.002,0.3651 -0.1664,0.726 -0.4893,1.0803 -0.193,0.2109 -0.7988,0.758 -1.815,1.6387 z m -3.6878,-4.2545 -2.4934,-2.8763 2.0075,-1.7402 c 0.7787,-0.6749 1.2952,-1.0834 1.5418,-1.2226 0.3739,-0.2197 0.7594,-0.3044 1.1588,-0.2523 0.4011,0.0542 0.7653,0.2676 1.0964,0.6497 0.2815,0.3243 0.4402,0.6636 0.4774,1.0248 0.0402,0.3588 -0.0442,0.7205 -0.2503,1.0783 -0.2058,0.3577 -0.8019,0.9666 -1.7881,1.8212 z M 661.568,304.9673 c 3.1077,-1.0766 5.9726,-2.2776 8.5947,-3.6025 2.622,-1.3252 4.888,-2.9404 6.7977,-4.8453 1.91,-1.9049 3.3991,-4.1825 4.4672,-6.8329 1.0683,-2.6504 1.6027,-5.7974 1.6027,-9.4416 v -0.3728 c 0,-3.9756 -0.6316,-7.6198 -1.8941,-10.9326 -1.2623,-3.3129 -3.0104,-6.1495 -5.2439,-8.5099 -2.2337,-2.3604 -4.8557,-4.1826 -7.8661,-5.4664 -3.0104,-1.2838 -6.2963,-1.9255 -9.8569,-1.9255 -3.3021,0 -6.4582,0.5176 -9.4689,1.5321 -3.0104,1.0352 -5.7458,2.4018 -8.206,4.079 -2.4599,1.677 -4.6125,3.6029 -6.4579,5.7354 -1.8453,2.1328 -3.2533,4.3483 -4.2244,6.6674 l 11.3621,9.1933 c 1.2302,-1.7394 2.4602,-3.2922 3.6904,-4.6588 1.2302,-1.3665 2.5251,-2.5262 3.8846,-3.4786 1.3595,-0.9525 2.8485,-1.6773 4.4671,-2.1742 1.6186,-0.4969 3.399,-0.7452 5.3413,-0.7452 1.23,0 2.4764,0.1655 3.7389,0.4969 1.2626,0.3311 2.4118,0.8696 3.4475,1.6149 1.0358,0.7455 1.8774,1.6772 2.5249,2.7952 0.6474,1.139 0.9711,2.5262 0.9711,4.1825 0,1.1597 -0.2265,2.2777 -0.6797,3.3546 -0.4533,1.0766 -1.2303,2.1325 -2.3307,3.168 -1.1007,1.0352 -2.5897,2.029 -4.4671,3.0021 -1.8777,0.9525 -4.2406,1.8842 -7.0895,2.7953 -3.4959,1.0769 -6.6361,2.2983 -9.4198,3.6649 -2.7839,1.3666 -5.1471,3.0231 -7.0894,4.9694 -1.942,1.967 -3.4314,4.3067 -4.4671,7.0398 -1.0358,2.7332 -1.554,5.984 -1.554,9.711 0,4.0583 0.599,7.7232 1.7966,11.0154 1.1979,3.2715 2.865,6.0253 5.0015,8.2616 2.1364,2.2569 4.6451,3.9756 7.5262,5.1766 2.8809,1.2008 5.9726,1.8011 9.2744,1.8011 3.4311,0 6.539,-0.4969 9.3229,-1.4907 2.7836,-0.9938 5.2761,-2.2569 7.4778,-3.7891 2.2011,-1.5321 4.1269,-3.2714 5.7781,-5.2177 1.6506,-1.9466 3.0266,-3.8307 4.1273,-5.6529 l -11.1683,-9.1933 c -2.7839,3.3959 -5.4221,5.777 -7.9146,7.1436 -2.4925,1.3666 -5.0984,2.0497 -7.8176,2.0497 -1.6833,0 -3.1235,-0.269 -4.3215,-0.8073 -1.1976,-0.5385 -2.1852,-1.201 -2.9619,-1.9879 -0.777,-0.7866 -1.3759,-1.677 -1.7966,-2.6711 -0.4209,-0.9938 -0.6313,-1.9462 -0.6313,-2.8573 0,-1.6563 0.3399,-3.0849 1.0197,-4.286 0.6797,-1.201 1.6835,-2.2983 3.0106,-3.2921 1.3272,-0.9939 2.9781,-1.9049 4.9527,-2.7332 1.9747,-0.8283 4.2245,-1.6566 6.7493,-2.4849 z m -46.3229,-50.8116 -5.0499,15.4049 h -31.076 l -5.1471,-15.4049 h -14.567 l 27.8714,86.9639 h 14.6642 L 583.9747,285.09 h 21.2678 l -9.6143,29.8162 10.9738,12.0506 23.2101,-72.8011 z m -55.84,20.0016 c -1.5539,-3.147 -3.3828,-6.0046 -5.487,-8.572 -2.1039,-2.5676 -4.4186,-4.7832 -6.9435,-6.6467 -2.5251,-1.8635 -5.244,-3.2921 -8.1575,-4.2859 -2.9134,-0.9939 -5.9238,-1.4908 -9.0315,-1.4908 -4.7911,0 -9.3067,1.1594 -13.5473,3.4784 -4.2406,2.319 -7.9308,5.487 -11.071,9.504 -3.1399,4.017 -5.6163,8.7378 -7.429,14.1628 -1.8128,5.4249 -2.719,11.2016 -2.719,17.3304 0,6.1291 0.9062,11.9058 2.719,17.3308 1.8127,5.4249 4.2891,10.1457 7.429,14.1627 3.1402,4.017 6.8304,7.185 11.071,9.504 4.2406,2.319 8.7562,3.4784 13.5473,3.4784 3.1077,0 6.1181,-0.4969 9.0315,-1.4908 2.9135,-0.9938 5.6324,-2.4224 8.1575,-4.2859 2.5249,-1.8635 4.8396,-4.0791 6.9435,-6.6467 2.1042,-2.5674 3.9331,-5.425 5.487,-8.572 l -11.3624,-9.3177 c -1.8127,4.4725 -4.3052,8.0546 -7.4778,10.7464 -3.1719,2.6915 -6.7651,4.0374 -10.7793,4.0374 -2.8488,0 -5.5355,-0.766 -8.0603,-2.2984 -2.5251,-1.5321 -4.7262,-3.6025 -6.6036,-6.2115 -1.8779,-2.609 -3.367,-5.6733 -4.4674,-9.1933 -1.1007,-3.5201 -1.6509,-7.2678 -1.6509,-11.2434 0,-3.9753 0.5502,-7.723 1.6509,-11.243 1.1004,-3.5201 2.5895,-6.5844 4.4674,-9.1934 1.8774,-2.609 4.0785,-4.6794 6.6036,-6.2115 2.5248,-1.5324 5.2115,-2.2984 8.0603,-2.2984 4.0142,0 7.6074,1.3459 10.7793,4.0374 3.1726,2.6918 5.6651,6.274 7.4778,10.7465 z m -114.5934,15.9021 c 0,-2.9815 0.4048,-5.777 1.2138,-8.3858 0.8093,-2.609 1.9262,-4.8866 3.3506,-6.8329 1.4241,-1.9462 3.0915,-3.4993 5.0012,-4.6587 1.9099,-1.1597 3.933,-1.7394 6.0695,-1.7394 v -15.2807 c -4.0785,0 -7.8985,0.9732 -11.4593,2.9194 -3.5606,1.9463 -6.6847,4.6174 -9.3714,8.0133 -2.6867,3.3956 -4.7908,7.3712 -6.3124,11.9265 -1.5214,4.555 -2.2819,9.4416 -2.2819,14.6593 v 50.4392 h 13.7899 v -50.4392 -0.2483 z m 44.8663,51.0602 v -50.4392 c 0,-4.3894 -0.5664,-8.5512 -1.6997,-12.4854 -1.133,-3.934 -2.6867,-7.4954 -4.6613,-10.6841 -1.9746,-3.1887 -4.3217,-5.9219 -7.0407,-8.1995 -2.7193,-2.2776 -5.665,-3.9546 -8.8373,-5.0315 l -6.0208,14.2869 c 2.0067,0.1658 3.8844,0.849 5.6325,2.05 1.7478,1.2008 3.2856,2.7746 4.6128,4.7208 1.3272,1.9463 2.3632,4.1826 3.1076,6.7088 0.7447,2.5259 1.1169,5.197 1.1169,8.013 0,0.0827 -0.0162,0.1448 -0.0485,0.1862 -0.0323,0.0417 -0.0485,0.1038 -0.0485,0.1865 0,0.2483 0.0162,0.2897 0.0485,0.1242 0.0323,-0.1656 0.0485,-0.0207 0.0485,0.4348 0,0.4555 0,1.4494 0,2.9818 0,1.5321 0,4.1411 0,7.8267 0,3.6856 0,8.6755 0,14.9701 0,6.2946 0,14.411 0,24.3499 z M 385.0872,254.1557 v 86.9639 h 13.5958 v -86.9639 z m 15.6353,17.3929 h 29.9106 v -17.3929 h -22.3358 z m -85.6539,69.571 43.7981,-80.7523 v -6.2116 h -14.1786 l -29.6195,54.6631 V 254.1557 H 300.89 v 86.9639 z m 29.6195,0 h 14.1786 v -65.0985 l -14.1786,13.0444 z m -83.5172,1.1179 c 4.7909,0 9.2583,-1.18 13.4017,-3.5404 4.1434,-2.3604 7.7366,-5.5491 10.7796,-9.5661 3.0429,-4.017 5.4221,-8.7378 7.1376,-14.1627 1.7158,-5.425 2.5736,-11.2017 2.5736,-17.3308 0,-5.2177 -0.6151,-10.1871 -1.8451,-14.908 -1.23,-4.7208 -2.9781,-8.9861 -5.2444,-12.7961 -2.2657,-3.8098 -4.9685,-7.0605 -8.1088,-9.7523 -3.1399,-2.6918 -6.5874,-4.6174 -10.3425,-5.7768 l -6.798,14.7839 c 2.7193,0.2483 5.1956,1.18 7.4293,2.7952 2.2334,1.6149 4.1599,3.6856 5.7782,6.2116 1.6185,2.5262 2.8811,5.4663 3.7876,8.8205 0.9063,3.3545 1.3592,6.895 1.3592,10.622 0,3.8928 -0.5014,7.5784 -1.5052,11.0571 -1.0034,3.4784 -2.3791,6.5016 -4.1272,9.0689 -1.7479,2.5676 -3.8359,4.5967 -6.2637,6.0874 -2.4276,1.491 -5.0984,2.2362 -8.0119,2.2362 -2.9134,0 -5.5839,-0.7452 -8.0118,-2.2362 -2.4279,-1.4907 -4.532,-3.5198 -6.3125,-6.0874 -1.7804,-2.5673 -3.1722,-5.5905 -4.1757,-9.0689 -1.0035,-3.4787 -1.5055,-7.1643 -1.5055,-11.0571 0,-3.8925 0.502,-7.5781 1.5055,-11.0568 1.0035,-3.4784 2.3953,-6.5016 4.1757,-9.0689 1.7805,-2.5676 3.8846,-4.5967 6.3125,-6.0874 2.4279,-1.491 5.0984,-2.2362 8.0118,-2.2362 v -16.1504 c -4.7908,0 -9.2582,1.1593 -13.4016,3.4784 -4.1434,2.319 -7.7366,5.5077 -10.7796,9.566 -3.043,4.0584 -5.4221,8.7999 -7.1376,14.2249 -1.7158,5.4249 -2.5736,11.2016 -2.5736,17.3304 0,6.1291 0.8578,11.9058 2.5736,17.3308 1.7155,5.4249 4.0946,10.1457 7.1376,14.1627 3.043,4.017 6.6362,7.2057 10.7796,9.5661 4.1434,2.3604 8.6108,3.5404 13.4016,3.5404 z m -72.7378,-1.1179 c 4.6615,0 9.064,-1.1387 13.2074,-3.4164 4.1437,-2.2776 7.7531,-5.3835 10.8281,-9.3177 3.0753,-3.9339 5.5032,-8.5513 7.2836,-13.8521 1.7802,-5.3005 2.6705,-10.9326 2.6705,-16.8959 0,-5.9629 -0.8903,-11.5951 -2.6705,-16.8956 -1.7804,-5.3008 -4.2083,-9.9182 -7.2836,-13.8521 -3.075,-3.9342 -6.6844,-7.0401 -10.8281,-9.3177 -4.1434,-2.2777 -8.5459,-3.4164 -13.2074,-3.4164 h -5.6325 l -6.4094,15.1566 h 12.0419 c 2.7839,0 5.4224,0.7039 7.9146,2.1121 2.4928,1.408 4.6616,3.3749 6.5069,5.9009 1.8451,2.5262 3.3018,5.5284 4.3699,9.0071 1.0684,3.4784 1.6024,7.247 1.6024,11.3051 0,3.9756 -0.534,7.7026 -1.6024,11.1813 -1.0681,3.4784 -2.5248,6.4808 -4.3699,9.0068 -1.8453,2.5262 -4.0141,4.5139 -6.5069,5.9632 -2.4922,1.4494 -5.1307,2.1742 -7.9146,2.1742 H 172.895 v -71.8073 h -13.5959 v 86.9639 z m 195.2101,29.5126 v 43.5192 h 20.8794 c 10.3655,0 19.0446,-8.242 20.6229,-18.9156 0.1684,-1.1398 0.2563,-2.3071 0.2563,-3.4957 v -3.6034 c 0,-1.1889 -0.0879,-2.3562 -0.2563,-3.4968 v -4.1159 c 0,-2.7981 0.5137,-5.4726 1.4457,-7.9217 2.9339,-7.7142 10.0108,-13.1868 18.22,-13.1868 h 19.6653 v 6.1775 h -5.7551 -0.4128 -13.4974 c -7.6391,0 -13.9099,6.7309 -13.9099,14.931 v 6.1282 6.573 c -0.2965,6.0905 -2.4052,11.6883 -5.7558,16.1804 -4.8506,6.5035 -12.3032,10.6872 -20.6229,10.6872 h -26.4143 v -49.4606 z m 75.0782,1.3601 h 5.7551 v 5.3688 h -5.7551 -6.0299 -4.9343 -1.4729 -1.4731 c -1.588,0 -2.9463,1.4587 -2.9463,3.1629 v 17.9461 4.3396 5.2948 6.4724 6.1778 h -4.9338 -11.7856 v -6.9628 c 0.7098,-0.9419 1.4216,-1.9326 2.1351,-3.016 1.2013,-1.823 2.4106,-3.9067 3.6207,-6.0458 v 9.8468 h 6.0298 v -6.4724 -9.6344 -17.9461 c 0,-4.627 3.5694,-8.4583 7.8801,-8.4583 h 1.4731 v -0.0734 z m -54.1988,-6.2663 h -18.125 -2.7544 -5.5349 v -5.942 h 26.4143 c 8.2466,0 15.6416,4.11 20.4948,10.5165 -0.4277,1.302 -0.8164,2.6082 -1.1046,3.9223 -0.3042,1.3816 -0.4981,2.7715 -0.7093,3.9425 -3.4373,-7.3545 -10.5381,-12.4393 -18.6809,-12.4393 z m 0,10.459 h -11.1344 v 27.5071 h 11.1344 c 6.094,0 11.1348,-5.4113 11.1348,-11.952 v -3.6034 c 0,-6.5412 -5.0408,-11.9517 -11.1348,-11.9517 z m -16.3423,33.0964 v -38.6866 h 16.3423 c 8.968,0 16.3429,7.916 16.3429,17.5419 v 3.6034 c 0,9.6262 -7.3749,17.5413 -16.3429,17.5413 z m 32.7634,48.4827 c 71.3084,0 131.7187,-46.6163 152.4481,-111.0322 h -23.6897 c -19.7807,51.8462 -69.9633,88.6793 -128.7584,88.6793 -44.3111,0 -83.7272,-20.9242 -108.9272,-53.4265 h -27.1868 c 28.2425,45.4855 78.6354,75.7794 136.114,75.7794 z M 556.2816,212.0346 c -28.3875,-44.7868 -78.3873,-74.5225 -135.3379,-74.5225 -54.9564,0 -103.4444,27.6882 -132.2807,69.8743 h 28.1877 c 25.2604,-29.1099 62.5252,-47.5217 104.093,-47.5217 43.7398,0 82.717,20.3845 107.9558,52.1699 z m -369.3483,149.811 c 12.1671,1.6708 20.8465,-0.907 26.217,-3.5835 l 1.1435,4.8384 0.005,0.0264 0.006,0.0244 c 0.003,0.011 0.006,0.0235 0.008,0.034 0.5471,2.1384 -0.5989,4.3466 -2.6841,5.0729 -5.5562,1.9338 -12.7253,3.2624 -21.5317,2.6385 -1.3436,-0.095 -2.7278,-0.2367 -4.1471,-0.4272 -2.2617,-0.3033 -4.0535,-2.24 -3.9441,-4.5187 0.1245,-2.5835 2.4024,-4.4385 4.9261,-4.1052 z m 71.7171,-8.4058 23.3161,0.4734 49.9461,1.0117 c 2.2119,0.043 3.9694,1.8731 3.926,4.0861 l -0.2166,10.5738 c -0.0453,2.213 -1.8742,3.9693 -4.0875,3.9254 l -62.0334,-1.258 c -1.5571,-0.0323 -2.9543,-0.9612 -3.5819,-2.3831 l -2.6719,-6.0369 -19.1497,-0.3881 c -5.6903,-0.1145 -10.8037,-3.5201 -13.1063,-8.7233 -0.4904,-1.1027 -0.8252,-1.8587 -0.8252,-1.8587 z m 11.1923,6.1755 v 0 c 0.007,0.3924 0.0127,0.7736 0.0207,1.1424 0.0235,1.4783 0.0462,2.7677 0.0666,3.829 0.0425,2.1235 0.091,3.3359 0.091,3.3359 0,0 0.0961,-1.2096 0.225,-3.3282 0.0607,-1.0593 0.1347,-2.3479 0.222,-3.8228 0.0204,-0.3696 0.0431,-0.7503 0.0655,-1.1438 0.01,-0.2449 0.017,-0.2803 0.0751,-0.3399 0.0289,-0.0292 0.0638,-0.0467 0.0972,-0.0569 0.0136,-0.003 0.0479,-0.009 0.042,-0.005 -0.0133,-0.002 0.0399,0 0.0575,-10e-4 -0.0142,10e-4 0.04,0.004 0.0576,0.005 0.828,0.0414 1.6988,0.0845 2.6067,0.129 3.6357,0.1783 7.8752,0.35 12.4206,0.4992 2.2711,0.07 4.621,0.1403 7.0055,0.2134 2.3871,0.0558 4.8115,0.1142 7.2357,0.1735 2.4248,0.0391 4.8484,0.0788 7.2363,0.1182 2.3859,0.0241 4.7347,0.0476 7.0078,0.0711 4.5471,0.0343 8.7914,0.0332 12.4308,0.003 0.4541,-0.004 0.8994,-0.007 1.3348,-0.008 0.2169,-0.002 0.4329,-0.003 0.6455,-0.005 l 0.3129,-0.004 c 0.0734,9e-4 0.1471,0.005 0.2163,0.0235 0.2849,0.0573 0.5307,0.2688 0.6429,0.5321 0.1159,0.2134 0.0737,0.6384 0.0924,1.0054 0.0247,1.4775 0.0491,2.7664 0.0661,3.8277 0.0433,2.1228 0.0887,3.3363 0.0887,3.3363 0,0 0.0944,-1.2109 0.2273,-3.3295 0.0604,-1.0596 0.1338,-2.3471 0.2206,-3.8228 0.0105,-0.1848 0.0195,-0.3736 0.0309,-0.5627 0.0178,-0.1928 0.002,-0.464 -0.0828,-0.6976 -0.1602,-0.4706 -0.5573,-0.8822 -1.078,-1.0409 -0.1279,-0.0434 -0.2651,-0.0612 -0.4023,-0.0726 l -0.3189,-0.0173 c -0.2123,-0.0107 -0.4277,-0.0204 -0.6443,-0.0311 -0.4357,-0.0204 -0.879,-0.0411 -1.3323,-0.0621 -3.6348,-0.1786 -7.8774,-0.3512 -12.4194,-0.5009 -2.2742,-0.0694 -4.6213,-0.14 -7.0098,-0.212 -2.3845,-0.0579 -4.8081,-0.1171 -7.2332,-0.1778 -2.4253,-0.0368 -4.8489,-0.0773 -7.2354,-0.117 -2.3882,-0.0258 -4.7364,-0.0494 -7.0092,-0.0737 -4.5471,-0.0349 -8.7911,-0.0329 -12.4299,-0.002 -0.9105,0.008 -1.7822,0.015 -2.6122,0.0235 l -0.0952,0.002 -0.0978,0.007 c -0.1097,0.0125 -0.1721,0.0363 -0.258,0.0672 -0.1542,0.0669 -0.2885,0.1698 -0.3906,0.3016 -0.2214,0.2534 -0.2026,0.6517 -0.1927,0.7908 z M 619.6714,245.3085 c -3.3171,0.2603 -6.2172,-2.2181 -6.4766,-5.534 l -0.0312,-0.3997 c 0,0 -0.1389,-1.7666 -0.3815,-4.8561 -0.1443,-1.54 -0.4572,-3.3964 -0.7333,-5.5224 -0.1778,-1.059 -0.4264,-2.1765 -0.6537,-3.356 -0.1165,-0.5896 -0.2367,-1.1933 -0.3594,-1.8121 -0.1395,-0.6143 -0.3164,-1.2376 -0.4771,-1.8757 -0.3552,-1.2705 -0.6273,-2.6122 -1.0749,-3.9617 -0.4405,-1.3507 -0.8632,-2.7516 -1.3456,-4.1757 -0.5335,-1.4074 -1.082,-2.8537 -1.6413,-4.3314 -0.6347,-1.4471 -1.2832,-2.9251 -1.9431,-4.4288 -0.741,-1.4704 -1.4596,-2.9739 -2.2397,-4.4714 -0.8413,-1.4732 -1.6177,-2.992 -2.5208,-4.4649 -1.789,-2.9551 -3.6834,-5.9071 -5.7841,-8.7298 -2.0393,-2.8573 -4.2908,-5.576 -6.5345,-8.2131 -2.2972,-2.6019 -4.6111,-5.112 -6.9806,-7.4262 -2.3326,-2.3434 -4.725,-4.4796 -6.9947,-6.4871 -2.3114,-1.9678 -4.5133,-3.7993 -6.6186,-5.3977 -4.1789,-3.2332 -7.8231,-5.662 -10.3541,-7.2618 -1.266,-0.7957 -2.2587,-1.3879 -2.9024,-1.7535 -0.1585,-0.0896 -0.2985,-0.1693 -0.4204,-0.239 -0.0919,-0.0493 -0.1712,-0.0901 -0.2344,-0.1244 -0.1701,-0.0925 -0.2583,-0.1401 -0.2583,-0.1401 -0.3452,-0.1905 -0.6996,-0.4065 -1.0321,-0.6335 -5.4935,-3.7647 -6.8947,-11.2709 -3.13,-16.7641 3.7644,-5.4941 11.2694,-6.8956 16.7638,-3.1314 l 0.0255,0.0187 c 0,0 0.1131,0.0771 0.3311,0.2264 0.1313,0.0891 0.2926,0.1999 0.4859,0.3309 0.1613,0.1153 0.3481,0.2485 0.5598,0.4005 0.8422,0.6006 2.0044,1.4621 3.4367,2.5775 2.8562,2.2332 6.7862,5.4732 11.196,9.6472 2.2218,2.0681 4.529,4.4079 6.931,6.9106 2.3616,2.5455 4.8291,5.2443 7.223,8.1824 2.4299,2.9019 4.7925,6.0325 7.1116,9.2642 2.2705,3.2758 4.5229,6.6391 6.5457,10.1574 2.0761,3.4793 3.9311,7.1017 5.6441,10.7104 0.8648,1.7995 1.603,3.6516 2.3907,5.4412 0.7297,1.8204 1.3913,3.6462 2.067,5.4221 0.5882,1.8144 1.1654,3.5968 1.732,5.3419 0.4754,1.7725 0.9408,3.5053 1.3941,5.1922 0.3946,1.7013 0.7282,3.3695 1.0723,4.9722 0.3515,1.6007 0.5278,3.1867 0.7816,4.684 0.1114,0.7515 0.2381,1.4848 0.3282,2.2056 0.0697,0.7234 0.1406,1.4312 0.2075,2.1212 0.127,1.3796 0.2769,2.6816 0.36,3.9107 0.0828,2.4655 0.214,4.6049 0.2061,6.3689 -0.0774,3.5197 -0.1208,5.5323 -0.1208,5.5323 -0.0782,3.047 -2.4483,5.6305 -5.5505,5.8731 z M 560.4571,135.8422 v 0 c -2.3468,-0.7917 -4.8889,0.4702 -5.6795,2.8168 -0.7915,2.3473 0.4697,4.8897 2.8162,5.6797 2.3474,0.7906 4.8903,-0.4711 5.6792,-2.8173 0.792,-2.3463 -0.4705,-4.8892 -2.8159,-5.6792 z m 59.4575,100.838 v 0 c -1.0976,-0.3702 -2.287,0.2205 -2.6558,1.3167 -0.3696,1.097 0.2203,2.2869 1.3184,2.6566 1.0951,0.3691 2.285,-0.2206 2.6547,-1.319 0.3693,-1.0956 -0.2217,-2.2856 -1.3173,-2.6543 z m -397.76,112.8016 c 3.3066,-0.3581 6.2773,2.0341 6.6356,5.341 l 0.042,0.3988 c 0,0 0.1921,1.7612 0.5249,4.8433 0.1905,1.5347 0.5585,3.3806 0.8958,5.4978 0.2089,1.0531 0.4904,2.1623 0.7526,3.3353 0.1335,0.5859 0.2713,1.1857 0.4113,1.8 0.1593,0.61 0.3538,1.2285 0.5349,1.8615 0.3889,1.2602 0.7027,2.592 1.19,3.9276 0.4796,1.3386 0.9428,2.7253 1.468,4.1347 0.5749,1.3918 1.1654,2.8204 1.7686,4.2806 0.6769,1.4281 1.3677,2.8868 2.0724,4.3701 0.7838,1.4477 1.5468,2.9302 2.3703,4.4037 0.8836,1.4476 1.705,2.9432 2.6515,4.3883 1.8752,2.9007 3.856,5.7957 6.0384,8.5558 2.1231,2.7961 4.4535,5.4465 6.7742,8.0178 2.3729,2.5322 4.7603,4.9728 7.198,7.2159 2.3987,2.2748 4.8547,4.3389 7.1816,6.2787 2.3687,1.8984 4.6245,3.6649 6.776,5.1996 4.2715,3.1082 7.9854,5.4289 10.5636,6.9534 1.2874,0.758 2.2986,1.3206 2.9522,1.6676 0.1608,0.0845 0.3028,0.1604 0.4269,0.2265 0.0941,0.0465 0.1744,0.0853 0.2376,0.1171 0.174,0.0875 0.2622,0.132 0.2622,0.132 0.3503,0.1809 0.7103,0.3856 1.0499,0.6033 5.6019,3.6011 7.225,11.063 3.6236,16.6648 -3.6006,5.6019 -11.0622,7.2247 -16.6641,3.6239 l -0.0263,-0.0173 c 0,0 -0.1143,-0.074 -0.3379,-0.2166 -0.1324,-0.0853 -0.2974,-0.1916 -0.4938,-0.3169 -0.1656,-0.1109 -0.3569,-0.2384 -0.5735,-0.3841 -0.8589,-0.5752 -2.0449,-1.402 -3.5107,-2.4752 -2.9214,-2.1476 -6.9451,-5.2699 -11.4752,-9.3127 -2.2822,-2.0015 -4.6573,-4.2715 -7.1325,-6.7034 -2.4344,-2.4743 -4.9802,-5.0989 -7.46,-7.965 -2.5143,-2.8293 -4.9682,-5.8887 -7.3819,-9.0513 -2.3664,-3.2072 -4.7163,-6.5024 -6.8415,-9.9601 -2.1784,-3.4163 -4.1385,-6.9823 -5.9581,-10.5392 -0.9181,-1.7731 -1.7096,-3.6034 -2.5498,-5.3677 -0.7826,-1.7989 -1.4981,-3.6046 -2.226,-5.3592 -0.6412,-1.7963 -1.2714,-3.5609 -1.8879,-5.2883 -0.5286,-1.7578 -1.0451,-3.4764 -1.5477,-5.1492 -0.4453,-1.6891 -0.8263,-3.3468 -1.2183,-4.9388 -0.3992,-1.5896 -0.6211,-3.1691 -0.9182,-4.6581 -0.1341,-0.7487 -0.2826,-1.4775 -0.394,-2.1958 -0.0918,-0.7208 -0.1825,-1.4266 -0.2707,-2.1137 -0.1672,-1.3751 -0.3555,-2.6728 -0.4745,-3.8985 -0.1565,-2.4619 -0.3498,-4.5958 -0.3938,-6.3598 -0.0272,-3.5212 -0.0413,-5.5341 -0.0413,-5.5341 -0.0134,-3.047 2.2793,-5.6996 5.3756,-6.0341 z m 62.4141,107.674 v 0 c 2.3694,0.7211 4.873,-0.6154 5.595,-2.9841 0.7197,-2.3694 -0.616,-4.873 -2.984,-5.5941 -2.3684,-0.7206 -4.8737,0.6154 -5.5934,2.984 -0.7211,2.3692 0.6143,4.873 2.9824,5.5942 z m -62.4048,-99.0414 v 0 c 1.109,0.3376 2.2791,-0.2883 2.617,-1.3949 0.3373,-1.1075 -0.2886,-2.2788 -1.3964,-2.6164 -1.1063,-0.3371 -2.2779,0.2883 -2.6155,1.3958 -0.3367,1.1066 0.288,2.2782 1.3949,2.6155 z M 655.3962,233.4302 c -12.1672,-1.6701 -20.8466,0.9068 -26.2165,3.5842 l -1.1447,-4.8393 -0.006,-0.0258 -0.006,-0.0244 c -0.003,-0.0116 -0.006,-0.0233 -0.009,-0.0338 -0.5457,-2.1393 0.599,-4.3474 2.685,-5.0728 5.5553,-1.9347 12.725,-3.2627 21.5308,-2.6388 1.345,0.0952 2.7286,0.2367 4.1479,0.4272 2.261,0.3039 4.0542,2.2393 3.9433,4.5187 -0.1227,2.584 -2.4021,4.4385 -4.9257,4.1048 z m -71.7166,8.4062 -23.3169,-0.4731 -49.9453,-1.0126 c -2.2119,-0.0428 -3.9697,-1.8725 -3.9249,-4.0853 l 0.2146,-10.5737 c 0.0451,-2.2133 1.8757,-3.9703 4.0875,-3.9257 l 62.0346,1.258 c 1.5553,0.0326 2.9528,0.9615 3.5824,2.3831 l 2.6705,6.0366 19.1495,0.3884 c 5.6902,0.115 10.8039,3.5195 13.1065,8.723 0.4901,1.1033 0.8255,1.859 0.8255,1.859 z m -11.1923,-6.1759 v 0 c -0.006,-0.3926 -0.0127,-0.7735 -0.0204,-1.142 -0.0244,-1.478 -0.0476,-2.7684 -0.0675,-3.8294 -0.0428,-2.1231 -0.091,-3.3358 -0.091,-3.3358 0,0 -0.0952,1.2098 -0.2253,3.3285 -0.0604,1.0593 -0.1344,2.3473 -0.2217,3.8231 -0.0198,0.369 -0.0419,0.7494 -0.0666,1.1432 -0.009,0.2454 -0.015,0.2806 -0.0743,0.3396 -0.0289,0.0294 -0.0629,0.0476 -0.0972,0.0572 -0.0136,0.004 -0.0482,0.01 -0.0405,0.005 0.0122,0.002 -0.0417,0.001 -0.059,0.001 0.0142,-0.001 -0.0397,-0.003 -0.0572,-0.004 -0.8275,-0.0414 -1.6977,-0.0845 -2.6065,-0.1287 -3.6349,-0.1783 -7.8758,-0.3507 -12.42,-0.4998 -2.2717,-0.0694 -4.6213,-0.1397 -7.007,-0.2131 -2.3867,-0.0562 -4.8106,-0.1146 -7.2337,-0.1732 -2.4256,-0.0394 -4.8489,-0.0788 -7.2371,-0.1185 -2.386,-0.0241 -4.7356,-0.0476 -7.009,-0.0715 -4.5467,-0.0345 -8.7905,-0.0328 -12.4302,-0.002 -0.4535,0.004 -0.8994,0.007 -1.3351,0.008 -0.2166,0.002 -0.4329,0.003 -0.6452,0.005 l -0.3132,0.004 c -0.0734,-0.001 -0.1451,-0.005 -0.216,-0.0241 -0.2843,-0.0569 -0.5306,-0.2681 -0.6429,-0.5317 -0.1165,-0.2132 -0.0734,-0.639 -0.0913,-1.0058 -0.0252,-1.4777 -0.0496,-2.7657 -0.0666,-3.8279 -0.0442,-2.1223 -0.0896,-3.3361 -0.0896,-3.3361 0,0 -0.0943,1.2113 -0.2259,3.3299 -0.0609,1.0599 -0.1341,2.3474 -0.2216,3.8231 -0.0105,0.1839 -0.0199,0.3736 -0.0312,0.5624 -0.0173,0.1927 -9e-4,0.4634 0.0825,0.6979 0.1598,0.4697 0.5578,0.8815 1.0791,1.0406 0.1273,0.0433 0.2645,0.0615 0.4022,0.072 l 0.3184,0.0175 c 0.2131,0.0111 0.4274,0.0202 0.6443,0.0318 0.4362,0.0195 0.8787,0.0402 1.332,0.0618 3.636,0.1788 7.878,0.3506 12.4206,0.5009 2.2733,0.0691 4.621,0.14 7.0083,0.2123 2.3851,0.0572 4.8093,0.1168 7.2341,0.1768 2.4244,0.0377 4.8486,0.0774 7.2357,0.1171 2.3879,0.0267 4.7369,0.0502 7.0083,0.0749 4.5482,0.0343 8.7926,0.0326 12.4303,0.002 0.9116,-0.008 1.7821,-0.0154 2.6118,-0.0239 l 0.0967,-0.002 0.0972,-0.007 c 0.1088,-0.0131 0.1715,-0.0357 0.2582,-0.0678 0.1531,-0.066 0.2889,-0.1698 0.3892,-0.301 0.2223,-0.2534 0.2033,-0.6514 0.1939,-0.7912 z m -73.2419,-16.6989 h -5.2937 l -2.0959,5.5248 h -9.7325 l -2.0165,-5.5248 H 474.91 l 9.4215,24.2674 h 5.1917 z m -8.9818,9.6259 -3.373,8.9819 -3.276,-8.9819 z m -28.2674,-9.6259 v 24.2674 h 4.9144 v -24.2674 z m -30.1087,0 v 24.2674 h 10.3201 c 2.5931,0 4.4801,-0.2199 5.6554,-0.655 1.1806,-0.4349 2.118,-1.2087 2.8236,-2.3216 0.7066,-1.118 1.0621,-2.3893 1.0621,-3.8242 0,-1.8244 -0.5309,-3.3273 -1.5985,-4.5136 -1.0672,-1.1863 -2.6608,-1.9321 -4.7848,-2.2425 1.0567,-0.6154 1.9269,-1.2941 2.6098,-2.0336 0.6891,-0.7401 1.6163,-2.0563 2.7797,-3.943 l 2.9599,-4.7339 h -5.8575 l -3.5141,5.2986 c -1.2597,1.881 -2.1243,3.0679 -2.5926,3.5589 -0.4632,0.4858 -0.955,0.8246 -1.4746,1.006 -0.5249,0.1803 -1.3498,0.271 -2.4794,0.271 h -0.9947 v -10.1345 z m 4.9144,13.9981 h 3.6264 c 2.3502,0 3.8131,0.1017 4.4007,0.2993 0.5814,0.1979 1.0452,0.5426 1.3729,1.0281 0.333,0.4856 0.4972,1.0959 0.4972,1.825 0,0.8184 -0.2203,1.4743 -0.6557,1.9825 -0.4348,0.5026 -1.0502,0.8193 -1.8417,0.9491 -0.4005,0.0567 -1.5928,0.0847 -3.5753,0.0847 h -3.8245 z m -13.3316,-13.9981 h -5.2934 l -2.096,5.5248 h -9.7325 l -2.0165,-5.5248 h -5.1971 l 9.4218,24.2674 h 5.1917 z m -8.9816,9.6259 -3.373,8.9819 -3.276,-8.9819 z m -41.2886,-9.6259 v 24.2674 h 17.9637 v -4.1006 h -13.049 v -5.3895 h 12.1337 v -4.1009 h -12.1337 v -6.5749 h 13.5241 v -4.1015 z m -30.2783,24.2674 h 9.7053 c 1.9261,0 3.3551,-0.0785 4.2987,-0.2369 0.9493,-0.1639 1.791,-0.497 2.5359,-0.9998 0.7464,-0.5086 1.368,-1.1806 1.8649,-2.0223 0.4966,-0.8416 0.7452,-1.7912 0.7452,-2.8354 0,-1.1299 -0.3052,-2.1754 -0.9144,-3.1184 -0.6103,-0.9491 -1.4414,-1.6549 -2.486,-2.1294 1.4743,-0.4354 2.6039,-1.1699 3.4004,-2.2094 0.7915,-1.0391 1.1861,-2.2594 1.1861,-3.6657 0,-1.1072 -0.254,-2.1804 -0.7677,-3.2258 -0.5142,-1.0452 -1.2149,-1.8808 -2.1072,-2.5079 -0.8873,-0.6219 -1.9829,-1.0057 -3.2874,-1.1525 -0.8138,-0.0848 -2.7853,-0.1412 -5.9088,-0.1639 h -8.265 z m 4.915,-4.0328 v -5.5925 h 3.2083 c 1.904,0 3.0903,0.0284 3.5532,0.0848 0.8359,0.0961 1.4975,0.3844 1.9772,0.8643 0.4804,0.4799 0.7177,1.1069 0.7177,1.8867 0,0.7512 -0.2089,1.3555 -0.6216,1.8247 -0.4125,0.4685 -1.0285,0.7509 -1.8417,0.8472 -0.4856,0.0564 -1.8808,0.0848 -4.18,0.0848 z m 0,-9.6256 v -6.5075 h 4.5417 c 1.7626,0 2.8868,0.0502 3.3607,0.1465 0.7291,0.1358 1.3224,0.4575 1.7796,0.9718 0.4575,0.5193 0.6894,1.203 0.6894,2.0673 0,0.7344 -0.1754,1.3504 -0.5315,1.8586 -0.3495,0.5089 -0.864,0.881 -1.5304,1.1126 -0.667,0.2316 -2.1186,0.3507 -4.3495,0.3507 z m -35.193,-10.609 v 24.2674 h 10.3207 c 2.5926,0 4.4796,-0.2199 5.6548,-0.655 1.1801,-0.4349 2.1175,-1.2087 2.8242,-2.3216 0.7055,-1.118 1.0616,-2.3893 1.0616,-3.8242 0,-1.8244 -0.5307,-3.3273 -1.5985,-4.5136 -1.0678,-1.1863 -2.6603,-1.9321 -4.7852,-2.2425 1.0565,-0.6154 1.9273,-1.2941 2.6102,-2.0336 0.6894,-0.7401 1.6163,-2.0563 2.7796,-3.943 l 2.9597,-4.7339 h -5.8572 l -3.5136,5.2986 c -1.2603,1.881 -2.1243,3.0679 -2.5931,3.5589 -0.4638,0.4858 -0.9547,0.8246 -1.4743,1.006 -0.5258,0.1803 -1.3507,0.271 -2.4803,0.271 h -0.9938 v -10.1345 z m 4.9148,13.9981 h 3.626 c 2.35,0 3.8129,0.1017 4.4008,0.2993 0.582,0.1979 1.0446,0.5426 1.3723,1.0281 0.3336,0.4856 0.4972,1.0959 0.4972,1.825 0,0.8184 -0.2203,1.4743 -0.6546,1.9825 -0.4359,0.5026 -1.0513,0.8193 -1.8422,0.9491 -0.4005,0.0567 -1.5928,0.0847 -3.5759,0.0847 h -3.8236 z m -13.3322,-13.9981 h -5.2929 l -2.0959,5.5248 h -9.7333 l -2.0166,-5.5248 h -5.1971 l 9.4227,24.2674 h 5.1914 z m -8.9819,9.6259 -3.3727,8.9819 -3.2762,-8.9819 z m -43.158,14.6415 h 9.7049 c 1.9262,0 3.3554,-0.0785 4.2991,-0.2369 0.9493,-0.1639 1.7906,-0.497 2.5358,-0.9998 0.7458,-0.5086 1.3672,-1.1806 1.8649,-2.0223 0.497,-0.8416 0.7453,-1.7912 0.7453,-2.8354 0,-1.1299 -0.3053,-2.1754 -0.9151,-3.1184 -0.6103,-0.9491 -1.4408,-1.6549 -2.4854,-2.1294 1.4746,-0.4354 2.6042,-1.1699 3.4005,-2.2094 0.7908,-1.0391 1.1866,-2.2594 1.1866,-3.6657 0,-1.1072 -0.2543,-2.1804 -0.7685,-3.2258 -0.5145,-1.0452 -1.2144,-1.8808 -2.1067,-2.5079 -0.887,-0.6219 -1.9831,-1.0057 -3.2882,-1.1525 -0.8136,-0.0848 -2.7845,-0.1412 -5.9086,-0.1639 h -8.2646 z m 4.9147,-4.0328 v -5.5925 h 3.2085 c 1.9035,0 3.0895,0.0284 3.5538,0.0848 0.8356,0.0961 1.497,0.3844 1.9766,0.8643 0.4799,0.4799 0.7177,1.1069 0.7177,1.8867 0,0.7512 -0.2095,1.3555 -0.6216,1.8247 -0.4127,0.4685 -1.0287,0.7509 -1.8417,0.8472 -0.4853,0.0564 -1.8813,0.0848 -4.1805,0.0848 z m 0,-9.6256 v -6.5075 h 4.5414 c 1.7623,0 2.8873,0.0502 3.3616,0.1465 0.7282,0.1358 1.3215,0.4575 1.7795,0.9718 0.457,0.5193 0.6886,1.203 0.6886,2.0673 0,0.7344 -0.1749,1.3504 -0.5309,1.8586 -0.3501,0.5089 -0.864,0.881 -1.531,1.1126 -0.6659,0.2316 -2.1178,0.3507 -4.349,0.3507 z M 556.4103,119.118 C 518.8331,90.6009 471.9779,73.6705 421.1651,73.6705 c -107.2907,0 -196.9449,75.4497 -218.8406,176.1808 h 10.6407 C 234.6673,154.9049 319.6386,84.0662 421.1651,84.0662 c 46.2705,0 89.1017,14.7175 124.073,39.7219 3.2145,-2.6677 7.1249,-4.2585 11.1722,-4.6701 z M 421.1651,502.3443 c 95.8697,0 176.3391,-65.9154 198.5891,-154.8924 h -10.7351 c -21.9991,83.177 -97.7604,144.4966 -187.854,144.4966 -42.6319,0 -82.0522,-13.7381 -114.0874,-37.0188 -0.2676,3.2755 -1.313,6.5291 -3.2037,9.4706 -0.1511,0.235 -0.307,0.4637 -0.4657,0.6905 33.3031,23.4661 73.9193,37.2535 117.7568,37.2535 z M 539.7795,130.7837 c -33.4608,-23.8339 -74.403,-37.8515 -118.6144,-37.8515 -96.5956,0 -177.5576,66.9183 -199.0842,156.9191 h 10.7016 c 21.2956,-84.2065 97.5583,-146.5236 188.3826,-146.5236 43.8115,0 84.2346,14.504 116.7344,38.9673 -0.4745,-3.854 0.1202,-7.852 1.88,-11.5113 z" /></g></g></g></svg>